<?xml version="1.0" encoding="UTF-8"?>
<!-- Generator: visioncortex VTracer 0.6.12 -->
<svg version="1.1" xmlns="http://www.w3.org/2000/svg" width="1272" height="767">
<path d="M0 0 C1.61244006884 -0.005992992594 3.22487728396 -0.012800300167 4.837310791016 -0.020355224609 C9.197165591018 -0.03794736287 13.556941764682 -0.042707823825 17.916828632355 -0.043986797333 C20.647913226881 -0.045413197707 23.378978145085 -0.049692098922 26.110057830811 -0.054981231689 C35.658671136073 -0.073461474254 45.2072287795 -0.081654659971 54.755859375 -0.080078125 C63.622343776325 -0.078878375816 72.488584110306 -0.09995315005 81.355006814003 -0.131565451622 C88.994436846052 -0.157821300659 96.633787641983 -0.168441484732 104.273262381554 -0.167167305946 C108.82380925577 -0.166660255607 113.374139181188 -0.172199558744 117.924640655518 -0.193523406982 C122.211032902095 -0.213062617121 126.497004792053 -0.212924630751 130.78341293335 -0.198490142822 C132.344531994423 -0.196419979892 133.905678469173 -0.200994105276 135.466751098633 -0.21321105957 C144.639576430948 -0.280269523504 152.805620725882 0.611066532906 161.658681869507 3.066396713257 C166.948887105224 5.017354310436 171.463955472991 7.9495510735 175.97802734375 11.29052734375 C176.96802734375 11.29052734375 177.95802734375 11.29052734375 178.97802734375 11.29052734375 C180.62802734375 10.13552734375 180.62802734375 10.13552734375 188.97802734375 4.29052734375 C199.929052443732 0.787429574314 209.691412876053 -0.290879193454 221.124267578125 -0.22705078125 C222.785233651751 -0.232486889128 224.446194892247 -0.239617805312 226.107147216797 -0.248291015625 C230.572189777296 -0.266352065092 235.036857993241 -0.259528580982 239.50190615654 -0.246774673462 C244.204247379778 -0.236555081633 248.906559319435 -0.246065118673 253.608901977539 -0.252319335938 C261.502590693752 -0.259570624934 269.396129095458 -0.250075286502 277.289794921875 -0.23095703125 C286.376803811379 -0.209200733787 295.463453430457 -0.216240838992 304.550453603268 -0.238262653351 C312.393010403342 -0.256497882587 320.235459940096 -0.258935298395 328.078031122684 -0.248507976532 C332.744188027369 -0.242316461393 337.41017688276 -0.24131608623 342.076322555542 -0.254653930664 C346.467069542293 -0.266330680031 350.857359926095 -0.257974492098 355.248058319092 -0.235076904297 C356.845837248163 -0.229851874235 358.44365557266 -0.231194957858 360.041418075562 -0.240127563477 C370.922286897978 -0.295283741004 380.539814289011 1.198728862001 390.97802734375 4.29052734375 C403.165527343751 13.397670200894 403.165527343751 13.397670200894 407.97802734375 17.29052734375 C408.61869140625 16.68724609375 409.25935546875 16.08396484375 409.91943359375 15.46240234375 C410.78439453125 14.66318359375 411.64935546875 13.86396484375 412.54052734375 13.04052734375 C413.38744140625 12.25162109375 414.23435546875 11.46271484375 415.10693359375 10.64990234375 C418.209586462784 8.100239305795 421.38845762621 6.066422135125 424.97802734375 4.29052734375 C435.759804825308 0.560039060154 446.103168516752 -0.294081164127 457.427490234375 -0.22705078125 C459.001557837079 -0.232489542091 460.575620335585 -0.239621904133 462.149673461914 -0.248291015625 C466.372869241615 -0.266317825939 470.595668307519 -0.259544034604 474.818869829178 -0.246774673462 C479.269428550563 -0.236540340643 483.719956697601 -0.246068784219 488.170516967773 -0.252319335938 C495.638722788646 -0.2595649671 503.106769580011 -0.250088822652 510.574951171875 -0.23095703125 C519.171791600165 -0.209186242851 527.76825247702 -0.216253612382 536.365083754063 -0.238262653351 C543.788117396801 -0.256495593911 551.211037717155 -0.258936876359 558.634086549282 -0.248507976532 C563.049247917021 -0.242317199224 567.464231687826 -0.241314275109 571.87938117981 -0.254653930664 C576.03212300542 -0.266327996914 580.184381953759 -0.257979417395 584.337072372437 -0.235076904297 C585.848193653626 -0.229851123219 587.359356586546 -0.231196325825 588.870460510254 -0.240127563477 C599.09021932444 -0.294897043076 608.330749950987 0.84465017566 617.97802734375 4.29052734375 C621.246239142122 6.032948022061 624.109581570373 7.953939224187 626.97802734375 10.29052734375 C627.28740234375 10.5373828125 627.28740234375 10.5373828125 628.85302734375 11.78662109375 C630.250043664669 12.928164522649 631.618146130733 14.104989875991 632.97802734375 15.29052734375 C636.047321997159 14.658815692489 638.332234181968 13.593740844881 641.04052734375 12.04052734375 C651.208919466468 6.835638200816 663.201587143671 4.656672640997 674.36083984375 2.55224609375 C685.433300710678 1.445000007057 695.662154249566 3.967967440034 706.36767578125 6.611328125 C714.901064346246 8.831669220007 721.83830321389 12.597984126323 729.10302734375 17.47802734375 C738.066153810023 23.752215870141 745.457281120201 30.754944492528 751.79052734375 39.72802734375 C757.198827322101 47.787659614558 760.660199764659 55.55759840021 763.1005859375 64.939453125 C765.587242449395 75.2151695956 767.138485503689 85.260161397821 766.26904296875 95.83837890625 C765.055253541835 106.065980419619 762.623171119707 116.421648067535 758.29052734375 125.79052734375 C754.592888063765 132.476932052117 749.808758222773 138.395657649855 744.97802734375 144.29052734375 C744.586796875 144.79197265625 744.586796875 144.79197265625 742.60693359375 147.32958984375 C739.655438824871 150.653858840496 736.566883609937 153.19584364458 732.97802734375 155.79052734375 C732.318671875 156.267561035156 731.65931640625 156.744594726562 730.97998046875 157.236083984375 C723.124875967793 162.773706285662 714.986252065028 166.554822419087 705.73193359375 169.118896484375 C702.824467112446 169.888014803331 699.905566393314 170.602170997379 696.97802734375 171.29052734375 C696.908960881849 177.216561528332 697.116162174883 182.982586136208 697.71711730957 188.875198364258 C697.79667165935 189.690532500148 697.876226009131 190.505866636038 697.958191096783 191.345907866955 C698.223433244422 194.053541200163 698.494893139172 196.760513277906 698.766357421875 199.467529296875 C698.95891602123 201.420234966731 699.151079754952 203.372979608774 699.342880249023 205.325759887695 C699.756127970897 209.524668036936 700.172120337509 213.723291905209 700.590250015259 217.921716690063 C701.255121488256 224.598258747478 701.913589829936 231.275423142018 702.571212768555 237.952682495117 C703.734999674779 249.761103263544 704.904090350539 261.568994355248 706.074401855469 273.376770019531 C707.825679987082 291.046298202343 709.57311742949 308.716204911907 711.315102756023 326.386651694775 C711.96568211913 332.983980577032 712.619142202136 339.581015623101 713.274828851223 346.177838742733 C720.448905048891 418.41923427512 720.448905048891 418.41923427512 718.962036132812 424.337478637695 C718.867739448547 424.713086304665 718.867739448547 424.713086304665 718.39054107666 426.61388874054 C715.386804289778 438.428128091504 715.386804289778 438.428128091504 712.35302734375 443.04052734375 C711.256005936132 444.478968679249 710.127013086911 445.893243834058 708.97802734375 447.29052734375 C708.58099609375 447.80486328125 708.58099609375 447.80486328125 706.57177734375 450.40771484375 C701.277375891649 457.26312395733 695.819264847083 463.991390568749 690.396240234375 470.7451171875 C687.143110493673 474.805589141078 683.948767974657 478.905957188908 680.79052734375 483.04052734375 C667.272325262221 500.668649169058 667.272325262221 500.668649169058 658.97802734375 507.29052734375 C657.82302734375 507.74427734375 656.66802734375 508.19802734375 655.47802734375 508.66552734375 C655.15318359375 508.79314453125 655.15318359375 508.79314453125 653.50927734375 509.43896484375 C646.963493752566 511.641095743253 641.158722100492 512.585627460173 634.296371459961 512.557952880859 C633.45890776217 512.562483993769 632.621444064379 512.567015106678 631.758602678776 512.571683526039 C628.971579614951 512.584274189424 626.184753310991 512.582710597994 623.397705078125 512.5810546875 C621.391329455576 512.587043425967 619.384956132185 512.593849767409 617.37858581543 512.601409912109 C611.940196925721 512.619045805506 606.501871019698 512.623764390525 601.063456296921 512.625041484833 C597.660162193539 512.626465454167 594.256883975631 512.630739805313 590.853593826294 512.636035919189 C578.964315931316 512.654530998008 567.075082818903 512.662707527722 555.185791015625 512.6611328125 C544.13070022812 512.659932831763 533.075805122948 512.681008448399 522.020763814449 512.712620139122 C512.50876022 512.738843079692 502.996820276826 512.749497527568 493.484780848026 512.748221993446 C487.813055946792 512.747713961251 482.141504874235 512.753308607088 476.469816207886 512.774578094482 C471.128766664442 512.79406099841 465.788054913246 512.794016585305 460.446992874146 512.779544830322 C458.497249621104 512.777467782489 456.547484667937 512.782090980526 454.597778320312 512.79426574707 C442.932516181312 512.862333677761 433.135292103592 511.823820400895 421.97802734375 508.29052734375 C418.34802734375 505.65052734375 414.71802734375 503.01052734375 410.97802734375 500.29052734375 C409.76115234375 501.21865234375 408.54427734375 502.14677734375 407.29052734375 503.10302734375 C403.496862845362 505.996500266249 399.830632604618 508.645388792638 395.293004989624 510.225541114807 C385.657696508772 512.579101650106 376.424064916844 512.722744636453 366.57421875 512.694580078125 C364.754293659158 512.700294341411 362.934372145515 512.707262652362 361.114456176758 512.715377807617 C356.207298159109 512.733208116329 351.300319947283 512.732159971666 346.393139362335 512.726435422897 C342.280669804471 512.723328697151 338.168234048537 512.72945246645 334.055769324303 512.735474169254 C324.345907032477 512.749484679782 314.63613278963 512.747987246215 304.92626953125 512.736572265625 C294.944077050366 512.725095698599 284.962153394915 512.739166991773 274.979996323586 512.765968739986 C266.376579451775 512.788194784301 257.773246537664 512.794747573662 249.169803023338 512.788892328739 C244.045892250613 512.785537888035 238.922153705279 512.787836426256 233.798267364502 512.805143356323 C228.976674343878 512.820720862866 224.155476562934 512.816538319281 219.333898544312 512.79783821106 C217.576051154223 512.794181970751 215.818173760091 512.797172962797 214.060354232788 512.807723999023 C203.022720752959 512.868859399615 193.51532934899 511.731970331821 182.97802734375 508.29052734375 C171.594098772321 500.120884486607 171.594098772321 500.120884486607 168.97802734375 497.29052734375 C168.31416015625 497.90541015625 167.65029296875 498.52029296875 166.96630859375 499.15380859375 C166.08330078125 499.96205078125 165.20029296875 500.77029296875 164.29052734375 501.60302734375 C163.42041015625 502.40353515625 162.55029296875 503.20404296875 161.65380859375 504.02880859375 C159.15026825156 506.144939773499 156.849671501699 507.725621005001 153.97802734375 509.29052734375 C143.512036470632 512.970517226651 132.767175681617 512.724491537919 121.83984375 512.694580078125 C119.941102100828 512.700293585561 118.04236388046 512.707261609869 116.143630981445 512.715377807617 C111.021606015536 512.733216371735 105.899753236835 512.732158389044 100.777706623077 512.726435422897 C96.48629395567 512.723329926099 92.194913715148 512.729451115415 87.903505682945 512.735474169254 C77.771742899985 512.749487374376 67.640064494819 512.747984963665 57.50830078125 512.736572265625 C47.08985995755 512.725095275471 36.671676689269 512.739167110238 26.253269791603 512.765968739986 C17.276183767437 512.788189549287 8.299178212449 512.794748744103 -0.677933335304 512.788892328739 C-6.025406774675 512.785536669108 -11.372715197753 512.787844718392 -16.720165252686 512.805143356323 C-21.751871244944 512.820712414097 -26.783198342412 512.816547399322 -31.814889907837 512.79783821106 C-33.650140074127 512.794179686571 -35.485418948701 512.797179819576 -37.320642471313 512.807723999023 C-48.568983553672 512.867363727384 -58.290097371972 511.830330640447 -69.02197265625 508.29052734375 C-76.275983232998 502.688220156337 -82.901132261551 496.718789475379 -89.37744140625 490.23583984375 C-90.332658243609 489.284526018317 -91.288092078499 488.333430037349 -92.243728637695 487.382537841797 C-94.229436381685 485.404222340051 -96.211317947443 483.422169849671 -98.190673828125 481.4375 C-100.703399300412 478.918972406914 -103.227337722788 476.412025007849 -105.754511833191 473.908006668091 C-107.725437019809 471.951942925149 -109.689254006841 469.988857104198 -111.651208877563 468.02379989624 C-113.022042336418 466.653715473143 -114.399372624065 465.290141034448 -115.776901245117 463.926788330078 C-121.223105500088 458.440585294236 -125.819974498859 452.781637698314 -130.02197265625 446.29052734375 C-130.714455218933 444.111062135305 -131.374148683459 441.921181418302 -132.02197265625 439.72802734375 C-132.39322265625 438.50986328125 -132.76447265625 437.29169921875 -133.14697265625 436.03662109375 C-136.180093679186 422.571249440718 -133.362448681844 407.482879067212 -131.97509765625 393.95068359375 C-131.760162371818 391.8132997118 -131.545548633853 389.675883473494 -131.331237792969 387.538436889648 C-130.882392904288 383.080992153886 -130.427739533758 378.624185979501 -129.96923828125 374.167724609375 C-129.386850297463 368.499859702588 -128.822047875934 362.830398345149 -128.262012481689 357.160286903381 C-127.824093201731 352.752105429962 -127.375201820148 348.345090212736 -126.923301696777 343.938322067261 C-126.710750881994 341.850234713856 -126.501829691506 339.761774141947 -126.296852111816 337.672929763794 C-125.112253290646 325.65782290216 -123.808515631904 313.814065665359 -120.02197265625 302.29052734375 C-117.895645066146 297.996113762949 -115.418945713163 294.712645915687 -112.06884765625 291.30224609375 C-109.3094073429 288.758716186597 -106.478495683409 286.587798152133 -103.33447265625 284.54052734375 C-91.107520223614 279.926583029548 -79.105949901472 279.766006832064 -66.20947265625 279.60302734375 C-59.87759765625 279.49990234375 -53.54572265625 279.39677734375 -47.02197265625 279.29052734375 C-45.70197265625 264.44052734375 -44.38197265625 249.59052734375 -43.02197265625 234.29052734375 C-47.97197265625 233.96052734375 -52.92197265625 233.63052734375 -58.02197265625 233.29052734375 C-61.252714472538 232.684306761794 -64.306039624401 232.067558433132 -67.45947265625 231.22802734375 C-68.2026171875 231.0417578125 -68.94576171875 230.85548828125 -69.71142578125 230.66357421875 C-74.922587647456 229.352378652414 -74.922587647456 229.352378652414 -77.22509765625 227.91943359375 C-83.119616465924 223.921740708727 -87.657703470624 219.878254003777 -91.85498046875 214.085205078125 C-93.876501322647 211.158864804664 -95.8442394557 208.202427161283 -97.77099609375 205.212890625 C-98.796127935101 203.637580687686 -99.874644078023 202.09712979159 -100.96728515625 200.56787109375 C-104.265426494337 195.736674108562 -105.998101871932 190.777597091859 -107.45947265625 185.16552734375 C-107.63607421875 184.52744140625 -107.81267578125 183.88935546875 -107.99462890625 183.23193359375 C-110.917838506037 170.473857798068 -107.629249443521 155.378470368219 -106.31494140625 142.44677734375 C-106.232590579987 141.631913604736 -106.150239753723 140.817049865723 -106.065393447876 139.977493286133 C-105.630008529669 135.672767387309 -105.190766082454 131.368455776584 -104.748291015625 127.064453125 C-104.297882919091 122.675389445089 -103.861347175983 118.285060827824 -103.427897453308 113.89429473877 C-103.086536105247 110.46322187932 -102.734607645309 107.033288031496 -102.379999160767 103.603561401367 C-102.214677150035 101.987190499373 -102.053159477947 100.370424863824 -101.895895004272 98.75325012207 C-100.763758911798 87.162600193328 -99.480755672857 75.050236690616 -94.69450378418 64.312377929688 C-89.231689951614 54.221253136139 -79.332516120199 46.04358877169 -71.02197265625 38.29052734375 C-69.701127401796 37.132631068438 -68.374495976382 35.98129399577 -67.04150390625 34.83740234375 C-61.448041659303 30.009171715334 -56.387771220944 24.63466749367 -51.26416015625 19.31787109375 C-45.971096452859 13.929670624448 -40.521896867546 9.183289699893 -34.02197265625 5.29052734375 C-31.070737974585 3.97883262662 -28.13808922811 3.112647134591 -25.02197265625 2.29052734375 C-23.775902404785 1.942027282715 -22.52983215332 1.59352722168 -21.246002197266 1.234466552734 C-14.257515277309 -0.287937741469 -7.114794851248 -0.005294779211 0 0 Z " fill="#050721" transform="translate(318.02197265625,90.70947265625)"/>
<path d="M0 0 C49.5 0 99 0 150 0 C154.29 3.96 158.58 7.92 163 12 C167.062500000002 15.562500000002 167.062500000002 15.562500000002 168.8984375 17.15625 C171.684104775194 19.600181141062 174.441767701873 22.073932229111 177.1875 24.5625 C177.687092285156 25.009885253906 178.186684570313 25.457270507812 178.701416015625 25.918212890625 C182.154748225603 29.063406917726 185.045531834505 32.402783636652 188 36 C188.10609085083 37.073436584473 188.21218170166 38.146873168945 188.321487426758 39.252838134766 C189.335787357024 49.515381462219 190.350272712214 59.777906446295 191.364926338196 70.040414810181 C191.886195348281 75.312741719963 192.407405518421 80.585074430831 192.928466796875 85.857421875 C193.531553349738 91.959653707663 194.1348566372 98.061864088018 194.73828125 104.1640625 C194.83702671051 105.162797660828 194.935772171021 106.161532821655 195.037509918213 107.190532684326 C196.239068683124 119.341436214826 197.447945456921 131.491562477884 198.66796875 143.640625 C199.736923246739 154.292865627781 200.765593792954 164.948290314769 201.763916015625 175.607360839844 C202.929678119983 188.03924321902 204.125105200714 200.464194992055 205.5 212.875 C206.854055608207 225.148240381333 207.961588805992 237.438708971368 209.056091308594 249.737121582031 C210.843398585752 269.770351955747 212.852622096855 289.780389525347 214.893798828125 309.7890625 C216.064498569571 321.306211543334 217.198834157481 332.824308300917 218.1796875 344.359375 C218.221869049072 344.847093811035 218.221869049072 344.847093811035 218.435333251953 347.315246582031 C218.841512035564 352.230341150072 219.089188487767 357.068301333584 219 362 C189.409090909091 400.590909090909 189.409090909091 400.590909090909 185 405 C128.57 405 72.14 405 14 405 C12.35 403.35 10.7 401.7 9 400 C7.254766961693 398.276471763662 5.508630570263 396.553857905526 3.76171875 394.83203125 C2.252215422726 393.337307439978 0.743693408573 391.841600944576 -0.764404296875 390.345458984375 C-1.789282111811 389.330602053294 -2.815952555418 388.317551981773 -3.844482421875 387.306396484375 C-10.376089230282 380.881744868529 -16.426852369136 374.292142031377 -22 367 C-22.851132944591 358.124412602611 -23.244530686513 349.282741679706 -23.46484375 340.37109375 C-23.502389502191 338.958202138194 -23.540286714533 337.545319829239 -23.578506469727 336.132446289062 C-23.659265689434 333.129670598848 -23.738201449931 330.126855187895 -23.815673828125 327.123992919922 C-24.022589165966 319.124073695676 -24.244393869727 311.124555498052 -24.46484375 303.125 C-24.487053642273 302.315815563202 -24.509263534546 301.506631126404 -24.532146453857 300.672925949097 C-24.969431247698 284.759290940023 -25.4640240863 268.848148091896 -26 252.9375 C-26.03584197998 251.847507019043 -26.071683959961 250.757514038086 -26.108612060547 249.634490966797 C-26.485629643199 238.20574518964 -26.911563049565 226.78045216721 -27.43310546875 215.357421875 C-28.892738454974 183.292411040597 -29.948013178734 151.219629166428 -30.925582647324 119.137124836445 C-31.104087791784 113.287682482649 -31.28660977977 107.438370477825 -31.47006046772 101.589081406593 C-31.67204773604 95.145571864116 -31.871210372165 88.701977825993 -32.069149017334 82.25834274292 C-32.151960822877 79.56418207533 -32.235881685514 76.870063045558 -32.320346832275 74.175952911377 C-32.738912190193 60.781373573506 -33.151063321203 47.40226615499 -33 34 C-32.506248779297 33.511767578125 -32.012497558594 33.02353515625 -31.503784179688 32.5205078125 C-29.478705562427 30.516665869398 -27.458209735161 28.50824720816 -25.4375 26.5 C-25.085263671875 26.151953125 -25.085263671875 26.151953125 -23.302734375 24.390625 C-19.947015355739 21.050370123685 -16.680172601829 17.688964143407 -13.59765625 14.09375 C-9.288365006693 9.190235099907 -4.615974945506 4.615974945506 0 0 Z " fill="#D45C02" transform="translate(765,142)"/>
<path d="M0 0 C50.82 0 101.64 0 154 0 C155.65 1.65 157.3 3.3 159 5 C160.100721819558 6.090692815035 161.202187456818 7.180635940246 162.3046875 8.26953125 C173.334156773548 19.200919929758 173.334156773548 19.200919929758 178.3359375 25.11328125 C181.697672959698 28.924826383883 185.370988587613 32.445050045009 189 36 C189.33 36.825 189.33 36.825 191 41 C191.146811746345 46.895897260132 191.288901800273 52.791886249728 191.42724609375 58.68798828125 C191.47455827636 60.679227859404 191.522999449173 62.670441043069 191.57275390625 64.66162109375 C191.982679610285 81.117210070011 192 97.530914140435 192 114 C166.59 114 141.18 114 115 114 C114.436168647969 99.340384847183 114 84.670454056444 114 70 C102.285 70.165 102.285 70.165 43 71 C42.67 91.79 42.34 112.58 42 134 C80.28 134 118.56 134 158 134 C162.62 138.95 167.24 143.9 172 149 C174.31 151.31 176.62 153.62 179 156 C180.185198773454 157.31688752606 181.356636311476 158.646630736032 182.5 160 C185.342736856943 163.311178822082 188.344959799957 166.366415188975 191.51953125 169.359375 C193.115273038126 171.127743208477 193.977264646442 172.861528337946 195 175 C195.025056152344 176.192624511719 195.050112304687 177.385249023437 195.075927734375 178.614013671875 C195.171944585708 183.148744167491 195.271644707777 187.683388193804 195.372314453125 192.218017578125 C195.414945687804 194.16005393542 195.456650471962 196.10211090789 195.497314453125 198.044189453125 C195.703972743968 207.884695968952 195.954466008845 217.713518470725 196.47265625 227.54296875 C196.981737897688 237.360613405134 197.250785126554 247.180878719743 197.5 257.0078125 C197.520585346222 257.81715303421 197.541170692444 258.62649356842 197.562379837036 259.460359573364 C197.733034129498 266.203049951602 197.898118653816 272.945874936406 198.0625 279.688720703125 C198.205435294653 285.545159396944 198.350829074269 291.40152916914 198.5 297.2578125 C198.520313434601 298.059221019745 198.540626869202 298.86062953949 198.561555862427 299.686323165894 C198.805926446745 309.209000561147 199.123057038495 318.719009176502 199.688583374023 328.228866577148 C200.059338273616 334.552904797456 200.116344377944 340.854572778787 200.0625 347.1875 C200.05798828125 348.24646484375 200.0534765625 349.3054296875 200.048828125 350.396484375 C200.037359463951 352.931058466843 200.021150730733 355.465491666508 200 358 C193.787695117703 365.905075789378 187.120453971938 373.244089991909 180.23046875 380.5546875 C177.295411825583 383.671665976144 174.447410803097 386.850618762818 171.65234375 390.09375 C169.545248137715 392.52463099006 167.399381579731 394.918948672812 165.25 397.3125 C164.51265625 398.1336328125 163.7753125 398.954765625 163.015625 399.80078125 C161.388588685106 401.576016609079 159.702748917208 403.297251082792 158 405 C105.53 405 53.06 405 -1 405 C-6.560875512996 400.551299589603 -6.560875512996 400.551299589603 -8.9375 397.6875 C-12.505074933468 393.508340792223 -16.239054928532 389.504094772464 -20 385.5 C-24.166619557524 381.056149395595 -28.313308915251 376.610081694589 -32.28125 371.986328125 C-34.23292598902 369.730811669507 -36.211962385779 367.501142864433 -38.1953125 365.2734375 C-38.909614257813 364.470834960938 -39.623916015625 363.668232421875 -40.35986328125 362.84130859375 C-40.901108398437 362.233676757812 -41.442353515625 361.626044921875 -42 361 C-41.587507536505 333.838167758211 -41.038061363656 306.687073260667 -40.0625 279.5390625 C-40.019991149902 278.355388412476 -39.977482299805 277.171714324951 -39.933685302734 275.952171325684 C-39.628749917441 267.50954530053 -39.314905827941 259.067258945459 -39 250.625 C-38.64107340062 240.971525085923 -38.286381180385 231.317905805288 -37.9375 221.6640625 C-37.895061645508 220.496154251099 -37.852623291016 219.328246002197 -37.808898925781 218.124946594238 C-37.135684043772 199.468718221313 -36.649239622034 180.813228679202 -36.341552734375 162.147369384766 C-36.189210346267 153.318417349885 -35.887763759359 144.552555625718 -35.238525390625 135.743041992188 C-34.821390807979 129.197188508221 -34.697611107724 122.644101374379 -34.554443359375 116.087419509888 C-34.498379888216 113.523566501635 -34.438135136517 110.959838608267 -34.376953125 108.396102905273 C-34.247733820554 102.951648483944 -34.12350760195 97.507086581684 -34 92.0625 C-33.856576185105 85.744428841712 -33.71096704757 79.426421572631 -33.560302734375 73.108518600464 C-33.501851070822 70.614148952594 -33.44710518742 68.119717420234 -33.392578125 65.625259399414 C-33.164486215279 55.729768597297 -32.697339669854 45.87356595201 -32 36 C-29.654052836268 32.435508205895 -27.381989338993 29.128185921444 -24.42578125 26.046875 C-24.093968505859 25.698264160156 -24.093968505859 25.698264160156 -22.414794921875 23.93408203125 C-21.721037597656 23.213334960938 -21.027280273437 22.492587890625 -20.3125 21.75 C-18.876763427642 20.242988028426 -17.441862972503 18.735179028475 -16.0078125 17.2265625 C-15.318486328125 16.502431640625 -14.62916015625 15.77830078125 -13.9189453125 15.0322265625 C-10.779357721816 11.707299449923 -7.733235360416 8.304277204084 -4.69921875 4.8828125 C-3.185775088926 3.205847339913 -1.597298322698 1.597298322698 0 0 Z " fill="#D35B02" transform="translate(531,141)"/>
<path d="M0 0 C50.82 0 101.64 0 154 0 C155.65 1.65 157.3 3.3 159 5 C159.954737370639 5.94501347075 160.910276561352 6.889218775386 161.8671875 7.83203125 C166.892392811293 12.8043309617 171.854220945918 17.762231367534 176.40234375 23.18359375 C178.496101504303 25.564027382642 180.75246840607 27.76527094592 183 30 C183.093960492947 43.748371414147 182.809886631702 57.459343385475 182.34375 71.19921875 C182.276218688903 73.257137338538 182.208963240419 75.315064996021 182.141967773438 77.373001098633 C181.967149721338 82.720724999723 181.788651498617 88.068319564422 181.609313964844 93.415893554688 C181.42606605922 98.900234279007 181.246399144611 104.384692279498 181.06640625 109.869140625 C180.714387988173 120.579542988835 180.358471086896 131.289811798864 180 142 C177.924544357242 144.08731323825 175.8475053442 146.173008924909 173.76953125 148.2578125 C173.185626220703 148.845383300781 172.601721191406 149.432954101562 172.000122070312 150.038330078125 C167.823398689886 154.225337336027 163.519363087056 158.184706109664 159 162 C157.497912702505 163.310110682616 155.997892891238 164.622595769123 154.5 165.9375 C153.333333333333 166.958333333333 152.166666666667 167.979166666667 151 169 C152.104421553964 171.669544670439 153.37058797922 173.426334547034 155.28515625 175.62890625 C156.207436633882 176.610073391569 157.133413486532 177.587775261071 158.0625 178.5625 C164.105741850598 185.022586256144 170.084188873216 191.626283309824 175 199 C175.149211563624 212.398658629996 174.676159123413 225.753690813442 174.16015625 239.140625 C174.072561146313 241.475309851106 173.98528253265 243.810006595402 173.898300170898 246.144714355469 C173.669381454612 252.272740252856 173.437224147064 258.40063847979 173.204040527344 264.528503417969 C172.789805475111 275.419902227711 172.379728720811 286.31145625632 171.97265625 297.203125 C171.929055976868 298.367093048096 171.885455703735 299.531061096191 171.840534210205 300.73030090332 C171.102972046009 320.483910873428 170.482336498382 340.238532860409 170 360 C168.575325827707 361.586192705198 167.150186126068 363.17196729201 165.724853515625 364.757568359375 C164.931279449463 365.640691986084 164.137705383301 366.523815612793 163.320083618164 367.433700561523 C160.2328697331 370.848540956787 157.094601477553 374.21237640531 153.9375 377.5625 C152.649721317958 378.930972395229 151.361961607909 380.299462643938 150.07421875 381.66796875 C149.743815917969 382.018835449219 149.743815917969 382.018835449219 148.07177734375 383.79443359375 C145.902659777789 386.1036261569 143.741735351721 388.420284155088 141.58203125 390.73828125 C140.138036307102 392.28386862348 138.694026282728 393.829441906958 137.25 395.375 C136.910291748047 395.740811767578 136.910291748047 395.740811767578 135.191162109375 397.592041015625 C134.555734863281 398.270651855469 133.920307617188 398.949262695312 133.265625 399.6484375 C132.706494140625 400.248334960937 132.14736328125 400.848232421875 131.5712890625 401.46630859375 C130 403 130 403 127 405 C74.2 405 21.4 405 -33 405 C-38.149214878686 400.49443698115 -43.1074416062 396.033577879956 -47.90625 391.19140625 C-48.516419677734 390.579821624756 -49.126589355469 389.968236999512 -49.755249023438 389.338119506836 C-51.672561646002 387.415281975523 -53.586337017459 385.488969060581 -55.5 383.5625 C-56.812265853307 382.245209413312 -58.124763945025 380.928150136322 -59.4375 379.611328125 C-62.627685061004 376.410213897725 -65.814706505766 373.20598135166 -69 370 C-69.474385370762 358.470868451717 -68.196459679685 347.11170421346 -67.028564453125 335.657958984375 C-66.692921855622 332.365682310366 -66.366079241315 329.072633118352 -66.041015625 325.779296875 C-65.823441120846 323.598905935961 -65.605356796328 321.418565799457 -65.38671875 319.23828125 C-65.292833709717 318.297693634033 -65.198948669434 317.357106018066 -65.10221862793 316.38801574707 C-63.860838918193 304.243147745381 -62.399642071898 292.130231289782 -61 280 C-35.26 280 -9.52 280 17 280 C17 293.703203194063 15.319950014674 307.360516515038 14 321 C40.4 321 66.8 321 94 321 C94.33 313.41 94.66 305.82 95 298 C95.279809372964 292.228295752219 95.565167769462 286.457574644075 95.875 280.6875 C95.895010681152 280.312045440674 95.895010681152 280.312045440674 95.996276855469 278.412017822266 C97.062295825802 258.588650555918 98.543267700792 238.798316248321 100 219 C73.27 219 46.54 219 19 219 C19 204.373980400211 19 204.373980400211 19.443115234375 199.235107421875 C19.53999130249 198.08068649292 19.636867370606 196.926265563965 19.736679077148 195.736862182617 C19.842910919189 194.538502349854 19.94914276123 193.34014251709 20.05859375 192.10546875 C20.167202301025 190.833269805908 20.275810852051 189.561070861816 20.387710571289 188.25032043457 C20.61634349752 185.583693798525 20.84694193462 182.917339901728 21.081298828125 180.251220703125 C21.379801854865 176.855033184514 21.672097819908 173.458349079968 21.962111473083 170.061427116394 C22.242161743627 166.784258403715 22.525313711496 163.507359644413 22.80859375 160.23046875 C22.912801361084 159.021987762451 23.017008972168 157.813506774902 23.124374389648 156.568405151367 C23.174388504028 155.999075088501 23.174388504028 155.999075088501 23.427490234375 153.117919921875 C23.514094085693 152.126766815186 23.600697937012 151.135613708496 23.689926147461 150.11442565918 C24.059505181551 146.402321534823 24.537293818224 142.70164945421 25 139 C50.41 138.67 75.82 138.34 102 138 C103.199397756121 123.607226926544 104.348889228775 109.28713910513 105.0625 94.875 C105.216073489773 91.788843342734 105.374341559872 88.702974240715 105.53515625 85.6171875 C105.567468414307 84.935988464355 105.599780578613 84.254789428711 105.633071899414 83.552947998047 C105.839614007083 79.590877592452 106.342188112754 75.946871323478 107 72 C83.57 72 60.14 72 36 72 C35.34 81.57 34.68 91.14 34 101 C33.835 101.495 33.835 101.495 33 104 C8.25 104 -16.5 104 -42 104 C-42.165 103.835 -42.165 103.835 -43 103 C-42.361706546238 94.36913369843 -41.630567615994 85.751934277959 -40.80859375 77.13671875 C-40.75381111145 76.557720718384 -40.75381111145 76.557720718384 -40.476577758789 73.627639770508 C-40.131285667229 69.980824420747 -39.784421639097 66.334160653135 -39.4375 62.6875 C-39.201067233934 60.193369292304 -38.964738188622 57.699228750038 -38.728515625 55.205078125 C-38.153540956064 49.136604711838 -37.57728064699 43.068254461666 -37 37 C-31.777116099318 30.652985458442 -26.197133418689 25.57742007682 -20 20 C-13.4 13.4 -6.8 6.8 0 0 Z " fill="#D45B02" transform="translate(307,142)"/>
<path d="M0 0 C50.82 0 101.64 0 154 0 C155.65 1.65 157.3 3.3 159 5 C160.100721819558 6.090692815035 161.202187456818 7.180635940246 162.3046875 8.26953125 C173.334156773548 19.200919929758 173.334156773548 19.200919929758 178.3359375 25.11328125 C181.697672959698 28.924826383883 185.370988587613 32.445050045009 189 36 C189.33 36.825 189.33 36.825 191 41 C191.146811746345 46.895897260132 191.288901800273 52.791886249728 191.42724609375 58.68798828125 C191.47455827636 60.679227859404 191.522999449173 62.670441043069 191.57275390625 64.66162109375 C191.982679610285 81.117210070011 192 97.530914140435 192 114 C166.59 114 141.18 114 115 114 C114.436168647969 99.340384847183 114 84.670454056444 114 70 C102.285 70.165 102.285 70.165 43 71 C42.67 91.79 42.34 112.58 42 134 C80.28 134 118.56 134 158 134 C162.62 138.95 167.24 143.9 172 149 C174.31 151.31 176.62 153.62 179 156 C180.185198773454 157.31688752606 181.356636311476 158.646630736032 182.5 160 C185.342736856943 163.311178822082 188.344959799957 166.366415188975 191.51953125 169.359375 C193.115273038126 171.127743208477 193.977264646442 172.861528337946 195 175 C195.025056152344 176.192624511719 195.050112304687 177.385249023437 195.075927734375 178.614013671875 C195.171944585708 183.148744167491 195.271644707777 187.683388193804 195.372314453125 192.218017578125 C195.414945687804 194.16005393542 195.456650471962 196.10211090789 195.497314453125 198.044189453125 C195.703972743968 207.884695968952 195.954466008845 217.713518470725 196.47265625 227.54296875 C196.981737897688 237.360613405134 197.250785126554 247.180878719743 197.5 257.0078125 C197.520585346222 257.81715303421 197.541170692444 258.62649356842 197.562379837036 259.460359573364 C197.733034129498 266.203049951602 197.898118653816 272.945874936406 198.0625 279.688720703125 C198.205435294653 285.545159396944 198.350829074269 291.40152916914 198.5 297.2578125 C198.520313434601 298.059221019745 198.540626869202 298.86062953949 198.561555862427 299.686323165894 C198.805926446745 309.209000561147 199.123057038495 318.719009176502 199.688583374023 328.228866577148 C200.059338273616 334.552904797456 200.116344377944 340.854572778787 200.0625 347.1875 C200.05798828125 348.24646484375 200.0534765625 349.3054296875 200.048828125 350.396484375 C200.037359463951 352.931058466843 200.021150730733 355.465491666508 200 358 C193.787695117703 365.905075789378 187.120453971938 373.244089991909 180.23046875 380.5546875 C177.295411825583 383.671665976144 174.447410803097 386.850618762818 171.65234375 390.09375 C169.545248137715 392.52463099006 167.399381579731 394.918948672812 165.25 397.3125 C164.51265625 398.1336328125 163.7753125 398.954765625 163.015625 399.80078125 C161.388588685106 401.576016609079 159.702748917208 403.297251082792 158 405 C105.53 405 53.06 405 -1 405 C-6.560875512996 400.551299589603 -6.560875512996 400.551299589603 -8.9375 397.6875 C-12.505074933468 393.508340792223 -16.239054928532 389.504094772464 -20 385.5 C-24.166619557524 381.056149395595 -28.313308915251 376.610081694589 -32.28125 371.986328125 C-34.23292598902 369.730811669507 -36.211962385779 367.501142864433 -38.1953125 365.2734375 C-38.909614257813 364.470834960938 -39.623916015625 363.668232421875 -40.35986328125 362.84130859375 C-40.901108398437 362.233676757812 -41.442353515625 361.626044921875 -42 361 C-41.587507536505 333.838167758211 -41.038061363656 306.687073260667 -40.0625 279.5390625 C-40.019991149902 278.355388412476 -39.977482299805 277.171714324951 -39.933685302734 275.952171325684 C-39.628749917441 267.50954530053 -39.314905827941 259.067258945459 -39 250.625 C-38.64107340062 240.971525085923 -38.286381180385 231.317905805288 -37.9375 221.6640625 C-37.895061645508 220.496154251099 -37.852623291016 219.328246002197 -37.808898925781 218.124946594238 C-37.135684043772 199.468718221313 -36.649239622034 180.813228679202 -36.341552734375 162.147369384766 C-36.189210346267 153.318417349885 -35.887763759359 144.552555625718 -35.238525390625 135.743041992188 C-34.821390807979 129.197188508221 -34.697611107724 122.644101374379 -34.554443359375 116.087419509888 C-34.498379888216 113.523566501635 -34.438135136517 110.959838608267 -34.376953125 108.396102905273 C-34.247733820554 102.951648483944 -34.12350760195 97.507086581684 -34 92.0625 C-33.856576185105 85.744428841712 -33.71096704757 79.426421572631 -33.560302734375 73.108518600464 C-33.501851070822 70.614148952594 -33.44710518742 68.119717420234 -33.392578125 65.625259399414 C-33.164486215279 55.729768597297 -32.697339669854 45.87356595201 -32 36 C-29.654052836268 32.435508205895 -27.381989338993 29.128185921444 -24.42578125 26.046875 C-24.093968505859 25.698264160156 -24.093968505859 25.698264160156 -22.414794921875 23.93408203125 C-21.721037597656 23.213334960938 -21.027280273437 22.492587890625 -20.3125 21.75 C-18.876763427642 20.242988028426 -17.441862972503 18.735179028475 -16.0078125 17.2265625 C-15.318486328125 16.502431640625 -14.62916015625 15.77830078125 -13.9189453125 15.0322265625 C-10.779357721816 11.707299449923 -7.733235360416 8.304277204084 -4.69921875 4.8828125 C-3.185775088926 3.205847339913 -1.597298322698 1.597298322698 0 0 Z M1 6 C-9 17 -9 17 -12.625 21.1875 C-16.216311924762 25.327365536182 -20.080758018473 29.172376662197 -24 33 C-24.99 35.31 -25.98 37.62 -27 40 C-27.0103074646 40.431256866455 -27.0103074646 40.431256866455 -27.062469482422 42.613677978516 C-28.827741755072 116.172314424138 -28.827741755072 116.172314424138 -30 140.75 C-30.863288788705 158.891114456169 -31.497886373453 177.035272098538 -32.057312011719 195.187881469727 C-32.124010035379 197.343012493463 -32.191746481701 199.498108547511 -32.259765625 201.653198242188 C-33.170186062151 230.593120214993 -33.170186062151 230.593120214993 -33 244 C-26.011482693133 244.025624505353 -19.022977764401 244.042980491545 -12.034423828125 244.054931640625 C-9.663325472835 244.059920716103 -7.292230129003 244.066714351396 -4.921142578125 244.075439453125 C7.75733845087 244.120882037458 20.365333379487 244.163391393376 33 243 C32.96970703125 243.702297363281 32.9394140625 244.404594726562 32.908203125 245.128173828125 C31.796811308304 272.081562674948 31.89452928826 299.028197308075 32 326 C32.33 326.33 32.66 326.66 33 327 C62.7 327 92.4 327 123 327 C123.33 326.67 123.66 326.34 124 326 C123.67 298.94 123.34 271.88 123 244 C145.44 244 167.88 244 191 244 C191 234.317197717353 190.963133786914 224.722717628115 190.5625 215.0625 C190.518107910156 213.930944824219 190.473715820312 212.799389648438 190.427978515625 211.633544921875 C190.28825564965 208.08890595818 190.144217459367 204.544458632235 190 201 C189.903357399126 198.567719776657 189.807001058505 196.135428161593 189.7109375 193.703125 C189.477255984727 187.801948035231 189.240050552488 181.900921137537 189 176 C182.827016657049 167.562973484848 182.827016657049 167.562973484848 179.16015625 164 C178.48919921875 163.34 177.8182421875 162.68 177.126953125 162 C176.786318359375 161.67 176.786318359375 161.67 175.0625 160 C170.415613807748 155.472491473962 165.932856688686 150.908975443877 161.736083984375 145.95703125 C159.593984813364 143.542312229493 157.282482946973 141.282482946973 155 139 C116.06 139 77.12 139 37 139 C37.33 114.91 37.66 90.82 38 66 C65.06 65.67 92.12 65.34 120 65 C120 78.86 120 92.72 120 107 C120.33 107.33 120.66 107.66 121 108 C142.45 108 163.9 108 186 108 C186.149847094801 62.746177370031 186.149847094801 62.746177370031 185 41 C179.869946695085 33.618374246283 173.70749577918 27.509016511487 167.3125 21.25 C165.741082866757 19.706346420348 164.171234999234 18.161173304176 162.604293823242 16.612976074219 C161.191745074132 15.218106771664 159.774356131718 13.828143978908 158.356689453125 12.4384765625 C156 10 156 10 153 6 C102.84 6 52.68 6 1 6 Z " fill="#346495" transform="translate(531,141)"/>
<path d="M0 0 C22.44 0 44.88 0 68 0 C68.910199044814 3.640796179256 69.259364826239 6.760329589536 69.480712890625 10.489990234375 C69.519873199463 11.132935333252 69.559033508301 11.775880432129 69.599380493164 12.43830871582 C69.727636901574 14.561527784531 69.850323381697 16.685025748244 69.97265625 18.80859375 C70.060685516004 20.296323605901 70.148940926837 21.784040096369 70.237411499023 23.271743774414 C70.422229572378 26.394483084663 70.604291247033 29.517367871305 70.784423828125 32.640380859375 C71.013470071516 36.607655611037 71.249266576957 40.574493468471 71.487206459045 44.541243553162 C71.671022256378 47.618657563764 71.851137875091 50.696280137502 72.030210494995 53.773973464966 C72.115601911627 55.234198149165 72.202092314531 56.694359059327 72.289781570435 58.154447555542 C72.413147230963 60.217919972025 72.531478241716 62.281628450641 72.648681640625 64.345458984375 C72.716725006104 65.512538909912 72.784768371582 66.679618835449 72.854873657227 67.882064819336 C73.055849074048 73.584707934022 73 79.293816545918 73 85 C101.71 85 130.42 85 160 85 C158.260543406708 60.067788829485 156.521667897703 35.20248752551 154.227783203125 10.3251953125 C153.992510998531 6.89067502679 154 3.442569186409 154 0 C176.11 0 198.22 0 221 0 C221.33 0.33 221.33 0.33 223 2 C224.311304934397 15.204282014449 225.615719461514 28.409225229768 226.911514282227 41.615038871765 C227.513514820855 47.748008431201 228.117822880162 53.880731758422 228.7275390625 60.012939453125 C229.31664110952 65.93870555056 229.899505793665 71.86505595589 230.478179931641 77.791849136353 C230.699241520697 80.044895281593 230.922491777551 82.297727865465 231.148040771484 84.550329208374 C233.413638417846 107.205104218698 233.413638417846 107.205104218698 233 118 C232.368359375 118.801796875 231.73671875 119.60359375 231.0859375 120.4296875 C230.182180210338 121.578037292045 229.278545204672 122.726483327669 228.375 123.875 C227.890070800781 124.491252441406 227.405141601562 125.107504882813 226.905517578125 125.742431640625 C224.045172117232 129.382175061408 221.197190488585 133.031034237453 218.36328125 136.69140625 C217.752426757812 137.479829101562 217.141572265625 138.268251953125 216.51220703125 139.08056640625 C215.322857582561 140.616822705105 214.134959687241 142.154204213601 212.94873046875 143.69287109375 C212.392016601563 144.411684570312 211.835302734375 145.130498046875 211.26171875 145.87109375 C210.776628417969 146.499431152344 210.291538085938 147.127768554687 209.791748046875 147.775146484375 C207.267138242191 150.910010791514 204.619467929905 153.943954081778 202 157 C147.55 157 93.1 157 37 157 C32.055983246074 152.673985340315 27.56076657323 148.650929875194 23.25 143.8125 C18.595311438868 138.669904905769 13.797483269529 133.714576375888 8.8330078125 128.870361328125 C6.588235953839 126.664937921037 4.755153208585 124.632729812878 3 122 C2.475340302767 108.290840334816 1.953565237469 94.581574132364 1.435394287109 80.87216758728 C1.19465526481 74.505218987456 0.952951552658 68.138310161349 0.708984375 61.771484375 C0.473241214636 55.618328153444 0.240108929666 49.465077881214 0.008728027344 43.311756134033 C-0.079656017324 40.973196907432 -0.168954494482 38.634672042559 -0.259216308594 36.296184539795 C-0.712912932921 24.526894872875 -1.16535271521 12.780232675955 -1 1 C-0.67 0.67 -0.34 0.34 0 0 Z " fill="#356595" transform="translate(745,385)"/>
<path d="M0 0 C21.12 0 42.24 0 64 0 C64 29.971010194762 64 29.971010194762 63.37890625 44.9609375 C63.313672400584 46.621374307627 63.248817226188 48.281826028934 63.184310913086 49.942291259766 C63.050423458655 53.36172698709 62.91322307542 56.7810057241 62.773193359375 60.2001953125 C62.595263159972 64.547554618026 62.42430784903 68.895154489354 62.255585670471 73.242879867554 C62.123003544622 76.647292859264 61.987662098935 80.051591686426 61.85142326355 83.455860137939 C61.787413227161 85.059164629496 61.724024346565 86.662494064999 61.661317825317 88.265850067139 C61.309647639072 97.197412736817 60.845580138503 106.098555935415 60 115 C52.839281905245 123.23223134589 45.677908745872 131.413836846948 37.8984375 139.0703125 C36.014304532049 140.985460002403 34.251384346059 142.963322276303 32.5 145 C28.851715425804 149.169468084795 24.917553091181 153.082446908819 21 157 C-30.15 157 -81.3 157 -134 157 C-138.917752507374 152.696966556048 -143.67234371885 148.472046571869 -148.25 143.84765625 C-148.793581542969 143.302659759521 -149.337163085938 142.757663269043 -149.897216796875 142.196151733398 C-151.600548149133 140.487307832861 -153.300333255123 138.774988028321 -155 137.0625 C-156.167733742525 135.889739911179 -157.335700735197 134.717212024471 -158.50390625 133.544921875 C-161.338632344471 130.69928311214 -164.170188243204 127.85052546898 -167 125 C-167.853154694517 120.101981891312 -167.991350509908 115.815213512515 -167.48681640625 110.874755859375 C-167.420293731689 110.200621490479 -167.353771057129 109.526487121582 -167.285232543945 108.831924438477 C-167.065421296454 106.62533050064 -166.833672908497 104.420174944732 -166.6015625 102.21484375 C-166.444906527948 100.669873753643 -166.288942435193 99.124833461049 -166.133636474609 97.579727172852 C-165.807384252119 94.350704303106 -165.475734696929 91.122301052911 -165.1396484375 87.894287109375 C-164.709963465333 83.767132921604 -164.289245707161 79.639131988536 -163.872003555298 75.510703086853 C-163.472213577619 71.557624205586 -163.068474475355 67.60495209237 -162.6640625 63.65234375 C-162.587701911926 62.903835887909 -162.511341323853 62.155328025818 -162.432666778564 61.3841381073 C-162.214568568179 59.254481549611 -161.993732913854 57.125127595868 -161.77197265625 54.995849609375 C-161.646822814941 53.786744232178 -161.521672973633 52.57763885498 -161.392730712891 51.331893920898 C-161.024568070963 48.208433421685 -160.517048516231 45.102291097386 -160 42 C-137.89 42 -115.78 42 -93 42 C-93.667608685883 56.019782403537 -94.66929097213 70.027555207368 -96 84 C-65.97 84 -35.94 84 -5 84 C-4.67 76.41 -4.34 68.82 -4 61 C-3.770538527466 56.479398751505 -3.536339783348 51.960443660149 -3.28125 47.44140625 C-3.218448486328 46.316533050537 -3.155646972656 45.191659851074 -3.090942382812 44.032699584961 C-2.960642238854 41.708524417712 -2.829586935315 39.384391456438 -2.69775390625 37.060302734375 C-2.497239589609 33.513674815216 -2.301289914232 29.966811672296 -2.10546875 26.419921875 C-1.976837111332 24.135401187914 -1.847940898895 21.85089537885 -1.71875 19.56640625 C-1.661427001953 18.520538482666 -1.604104003906 17.474670715332 -1.545043945312 16.397109985352 C-1.488284912109 15.410851287842 -1.431525878906 14.424592590332 -1.373046875 13.408447265625 C-1.324989013672 12.554045562744 -1.276931152344 11.699643859863 -1.227416992188 10.819351196289 C-0.935592136218 7.201517942618 -0.450194474181 3.601555793452 0 0 Z " fill="#356595" transform="translate(411,385)"/>
<path d="M0 0 C23.43 0 46.86 0 71 0 C71.669291045556 4.015746273339 72.198643908246 7.75957215599 72.4931640625 11.78759765625 C72.535204620361 12.352370681763 72.535204620361 12.352370681763 72.747955322266 15.210464477539 C72.836286315918 16.432651824951 72.92461730957 17.654839172363 73.015625 18.9140625 C73.162893957218 20.898716818163 73.310168439049 22.883370734446 73.4576587677 24.868008613586 C73.614863307251 26.988610772372 73.770863510185 29.109298682542 73.926574707031 31.230010986328 C74.476832959297 38.717745528128 75.037902550281 46.204669941224 75.6015625 53.69140625 C75.659085655212 54.455968227387 75.716608810425 55.220530204773 75.775875091553 56.008260726929 C76.971328017027 71.867273526382 78.282659353082 87.7152443738 79.625 103.5625 C81.18397607948 121.990408201299 82.659691449898 140.419499238616 83.97705078125 158.8662109375 C84.762443426426 169.853097122221 85.604393150383 180.834037385385 86.5 191.8125 C86.530529632568 192.187214355469 86.530529632568 192.187214355469 86.685028076172 194.08349609375 C87.323813042951 201.908797475991 87.975662401561 209.73295180525 88.639495849609 217.556167602539 C88.852696545687 220.06889009203 89.065080500671 222.58168058758 89.27734375 225.094482421875 C89.543796005886 228.248563757614 89.813754415411 231.402316783223 90.0859375 234.555908203125 C90.207143077615 235.983877231266 90.328242565772 237.411855269575 90.44921875 238.83984375 C90.555808105469 240.081130371094 90.662397460938 241.322416992188 90.772216796875 242.601318359375 C90.981778152859 245.728117541218 91 248.866186175681 91 252 C65.59 252 40.18 252 14 252 C13.4366796875 241.25953125 12.873359375 230.5190625 12.29296875 219.453125 C11.925909576069 212.529167931665 11.558431979328 205.60525670428 11.18505859375 198.681640625 C11.137992312908 197.808863801956 11.090926032066 196.936086978912 11.04243350029 196.036862373352 C9.405595297299 165.748546520588 7.582284736531 135.471049500355 5.759996294975 105.193431377411 C5.25198829887 96.750336858242 4.74759012589 88.307027461368 4.243113160133 79.863721370697 C3.851481079923 73.311280121283 3.459019347392 66.758888521927 3.066409826279 60.206505775452 C2.973258485362 58.651783507572 2.880131392415 57.097059786668 2.787029504776 55.54233455658 C2.524493474051 51.158595201359 2.261428911645 46.774888192331 1.997547149658 42.391229629517 C1.881759642487 40.466115335821 1.766437288002 38.540973081969 1.651138305664 36.615829467773 C1.579816894531 35.433059234619 1.508495483398 34.250289001465 1.435012817383 33.031677246094 C1.365577793121 31.879051437378 1.29614276886 30.726425628662 1.224603652954 29.538871765137 C1.068465275332 27.078743941067 0.900481826455 24.619350899325 0.723257064819 22.160652160645 C0.631510181427 20.883047714233 0.539763298035 19.605443267822 0.445236206055 18.289123535156 C0.360330228806 17.154256324768 0.275424251556 16.01938911438 0.187945365906 14.850131988525 C-0.053424478397 9.905579330167 0 4.950440424146 0 0 Z " fill="#04061B" transform="translate(809,213)"/>
<path d="M0 0 C50.82 0 101.64 0 154 0 C155.65 1.65 157.3 3.3 159 5 C159.954737370639 5.94501347075 160.910276561352 6.889218775386 161.8671875 7.83203125 C166.892392811293 12.8043309617 171.854220945918 17.762231367534 176.40234375 23.18359375 C178.496101504303 25.564027382642 180.75246840607 27.76527094592 183 30 C183.093960492947 43.748371414147 182.809886631702 57.459343385475 182.34375 71.19921875 C182.276218688903 73.257137338538 182.208963240419 75.315064996021 182.141967773438 77.373001098633 C181.967149721338 82.720724999723 181.788651498617 88.068319564422 181.609313964844 93.415893554688 C181.42606605922 98.900234279007 181.246399144611 104.384692279498 181.06640625 109.869140625 C180.714387988173 120.579542988835 180.358471086896 131.289811798864 180 142 C177.924544357242 144.08731323825 175.8475053442 146.173008924909 173.76953125 148.2578125 C173.185626220703 148.845383300781 172.601721191406 149.432954101562 172.000122070312 150.038330078125 C167.823398689886 154.225337336027 163.519363087056 158.184706109664 159 162 C157.497912702505 163.310110682616 155.997892891238 164.622595769123 154.5 165.9375 C153.333333333333 166.958333333333 152.166666666667 167.979166666667 151 169 C152.104421553964 171.669544670439 153.37058797922 173.426334547034 155.28515625 175.62890625 C156.207436633882 176.610073391569 157.133413486532 177.587775261071 158.0625 178.5625 C164.105741850598 185.022586256144 170.084188873216 191.626283309824 175 199 C175.149211563624 212.398658629996 174.676159123413 225.753690813442 174.16015625 239.140625 C174.072561146313 241.475309851106 173.98528253265 243.810006595402 173.898300170898 246.144714355469 C173.669381454612 252.272740252856 173.437224147064 258.40063847979 173.204040527344 264.528503417969 C172.789805475111 275.419902227711 172.379728720811 286.31145625632 171.97265625 297.203125 C171.929055976868 298.367093048096 171.885455703735 299.531061096191 171.840534210205 300.73030090332 C171.102972046009 320.483910873428 170.482336498382 340.238532860409 170 360 C168.575325827707 361.586192705198 167.150186126068 363.17196729201 165.724853515625 364.757568359375 C164.931279449463 365.640691986084 164.137705383301 366.523815612793 163.320083618164 367.433700561523 C160.2328697331 370.848540956787 157.094601477553 374.21237640531 153.9375 377.5625 C152.649721317958 378.930972395229 151.361961607909 380.299462643938 150.07421875 381.66796875 C149.743815917969 382.018835449219 149.743815917969 382.018835449219 148.07177734375 383.79443359375 C145.902659777789 386.1036261569 143.741735351721 388.420284155088 141.58203125 390.73828125 C140.138036307102 392.28386862348 138.694026282728 393.829441906958 137.25 395.375 C136.910291748047 395.740811767578 136.910291748047 395.740811767578 135.191162109375 397.592041015625 C134.555734863281 398.270651855469 133.920307617188 398.949262695312 133.265625 399.6484375 C132.706494140625 400.248334960937 132.14736328125 400.848232421875 131.5712890625 401.46630859375 C130 403 130 403 127 405 C74.2 405 21.4 405 -33 405 C-38.149214878686 400.49443698115 -43.1074416062 396.033577879956 -47.90625 391.19140625 C-48.516419677734 390.579821624756 -49.126589355469 389.968236999512 -49.755249023438 389.338119506836 C-51.672561646002 387.415281975523 -53.586337017459 385.488969060581 -55.5 383.5625 C-56.812265853307 382.245209413312 -58.124763945025 380.928150136322 -59.4375 379.611328125 C-62.627685061004 376.410213897725 -65.814706505766 373.20598135166 -69 370 C-69.474385370762 358.470868451717 -68.196459679685 347.11170421346 -67.028564453125 335.657958984375 C-66.692921855622 332.365682310366 -66.366079241315 329.072633118352 -66.041015625 325.779296875 C-65.823441120846 323.598905935961 -65.605356796328 321.418565799457 -65.38671875 319.23828125 C-65.292833709717 318.297693634033 -65.198948669434 317.357106018066 -65.10221862793 316.38801574707 C-63.860838918193 304.243147745381 -62.399642071898 292.130231289782 -61 280 C-35.26 280 -9.52 280 17 280 C17 293.703203194063 15.319950014674 307.360516515038 14 321 C40.4 321 66.8 321 94 321 C94.33 313.41 94.66 305.82 95 298 C95.279809372964 292.228295752219 95.565167769462 286.457574644075 95.875 280.6875 C95.895010681152 280.312045440674 95.895010681152 280.312045440674 95.996276855469 278.412017822266 C97.062295825802 258.588650555918 98.543267700792 238.798316248321 100 219 C73.27 219 46.54 219 19 219 C19 204.373980400211 19 204.373980400211 19.443115234375 199.235107421875 C19.53999130249 198.08068649292 19.636867370606 196.926265563965 19.736679077148 195.736862182617 C19.842910919189 194.538502349854 19.94914276123 193.34014251709 20.05859375 192.10546875 C20.167202301025 190.833269805908 20.275810852051 189.561070861816 20.387710571289 188.25032043457 C20.61634349752 185.583693798525 20.84694193462 182.917339901728 21.081298828125 180.251220703125 C21.379801854865 176.855033184514 21.672097819908 173.458349079968 21.962111473083 170.061427116394 C22.242161743627 166.784258403715 22.525313711496 163.507359644413 22.80859375 160.23046875 C22.912801361084 159.021987762451 23.017008972168 157.813506774902 23.124374389648 156.568405151367 C23.174388504028 155.999075088501 23.174388504028 155.999075088501 23.427490234375 153.117919921875 C23.514094085693 152.126766815186 23.600697937012 151.135613708496 23.689926147461 150.11442565918 C24.059505181551 146.402321534823 24.537293818224 142.70164945421 25 139 C50.41 138.67 75.82 138.34 102 138 C103.199397756121 123.607226926544 104.348889228775 109.28713910513 105.0625 94.875 C105.216073489773 91.788843342734 105.374341559872 88.702974240715 105.53515625 85.6171875 C105.567468414307 84.935988464355 105.599780578613 84.254789428711 105.633071899414 83.552947998047 C105.839614007083 79.590877592452 106.342188112754 75.946871323478 107 72 C83.57 72 60.14 72 36 72 C35.34 81.57 34.68 91.14 34 101 C33.835 101.495 33.835 101.495 33 104 C8.25 104 -16.5 104 -42 104 C-42.165 103.835 -42.165 103.835 -43 103 C-42.361706546238 94.36913369843 -41.630567615994 85.751934277959 -40.80859375 77.13671875 C-40.75381111145 76.557720718384 -40.75381111145 76.557720718384 -40.476577758789 73.627639770508 C-40.131285667229 69.980824420747 -39.784421639097 66.334160653135 -39.4375 62.6875 C-39.201067233934 60.193369292304 -38.964738188622 57.699228750038 -38.728515625 55.205078125 C-38.153540956064 49.136604711838 -37.57728064699 43.068254461666 -37 37 C-31.777116099318 30.652985458442 -26.197133418689 25.57742007682 -20 20 C-13.4 13.4 -6.8 6.8 0 0 Z M3 5 C-8.492719843462 15.343447859116 -8.492719843462 15.343447859116 -13.2265625 20.12890625 C-13.485840301514 20.388891525269 -13.485840301514 20.388891525269 -14.797943115234 21.704574584961 C-16.409385629704 23.321492386325 -18.017264677813 24.941896968349 -19.625 26.5625 C-20.735439607276 27.677970830285 -21.846115382884 28.793206608945 -22.95703125 29.908203125 C-25.640741586381 32.602776305368 -28.321269358293 35.300476727327 -31 38 C-32.256106775935 41.768320327805 -32.571301455621 45.515614349956 -32.97265625 49.4453125 C-33.060025482178 50.288591003418 -33.147394714355 51.131869506836 -33.237411499023 52.000701904297 C-33.421643129755 53.79438246485 -33.603926801944 55.588263999413 -33.784423828125 57.38232421875 C-34.056625357406 60.067058178312 -34.341453678948 62.750246219687 -34.626953125 65.43359375 C-34.805475928753 67.187419924507 -34.983231603786 68.941324383903 -35.16015625 70.6953125 C-35.244514312744 71.473110656738 -35.328872375488 72.250908813477 -35.415786743164 73.052276611328 C-36.233113106752 81.452161826889 -36 89.418726471508 -36 98 C-14.88 98 6.24 98 28 98 C29.652189374657 88.086863752058 30.165403256574 78.015160921117 31 68 C58.06 67.67 85.12 67.34 113 67 C112.67 67.99 112.34 68.98 112 70 C111.80356667442 72.020647455512 111.656078041148 74.046185350466 111.53515625 76.07275390625 C111.458376464844 77.324806213379 111.381596679688 78.576858520508 111.302490234375 79.866851806641 C111.222477260725 81.236754423299 111.142480937856 82.606658012578 111.0625 83.9765625 C110.977061726117 85.385635342677 110.891199188528 86.794682518763 110.804931640625 88.203704833984 C110.578327234024 91.918724853158 110.356191637558 95.633997120817 110.135375976562 99.349365234375 C109.782907377095 105.274270221992 109.425462029703 111.19886860951 109.064666748047 117.123271942139 C108.940201169762 119.181886160138 108.818710991589 121.240660369524 108.697509765625 123.299468994141 C108.620729980469 124.570434265137 108.543950195313 125.841399536133 108.46484375 127.15087890625 C108.399020996094 128.258797912598 108.333198242188 129.366716918945 108.265380859375 130.508209228516 C107.948211691652 134.681412885569 107.462182323915 138.840359084769 107 143 C81.59 143.33 56.18 143.66 30 144 C29.219758933498 147.120964266007 28.774373408832 149.745697563849 28.519287109375 152.91357421875 C28.439279632568 153.88914276123 28.359272155762 154.864711303711 28.276840209961 155.869842529297 C28.235673294067 156.395341949463 28.235673294067 156.395341949463 28.02734375 159.0546875 C27.939974517822 160.147822570801 27.852605285645 161.240957641602 27.762588500977 162.367218017578 C27.578495981756 164.685428515378 27.396205897721 167.003782743915 27.215576171875 169.322265625 C26.941227718777 172.827374219798 26.657493363824 176.331635839252 26.373046875 179.8359375 C26.194734788235 182.096308667467 26.016983398212 184.356724149261 25.83984375 186.6171875 C25.797664718628 187.132565765381 25.797664718628 187.132565765381 25.584213256836 189.740692138672 C24.987194877392 197.563850752681 25 205.090647040643 25 213 C51.73 213 78.46 213 106 213 C105.67 214.32 105.34 215.64 105 217 C104.774747831942 219.694833998713 104.590474769026 222.376328869443 104.443359375 225.075439453125 C104.39605178833 225.887639465332 104.34874420166 226.699839477539 104.300003051758 227.536651611328 C104.144184136941 230.22866155577 103.993893181565 232.920949241468 103.84375 235.61328125 C103.735763545841 237.503042915278 103.627482274755 239.392787754672 103.518920898438 241.282516479492 C103.291345438607 245.257794643855 103.066317179275 249.233205929314 102.84326171875 253.208740234375 C102.561180459167 258.235390120337 102.274523277486 263.261764353713 101.98607635498 268.288052558899 C101.761655453354 272.203206576774 101.538975593716 276.118458119175 101.316848754883 280.033742904663 C101.211946123939 281.881988969832 101.106725325461 283.730217011507 101.00114440918 285.578424453735 C100.214817840248 299.382704060849 99.600674066122 313.184496479191 99 327 C68.97 327 38.94 327 8 327 C8.99 316.11 9.98 305.22 11 294 C11 291.03 11 288.06 11 285 C-11.11 285 -33.22 285 -56 285 C-57.354608455975 296.997960610069 -58.69708783259 308.996425881979 -60 321 C-60.049276428223 321.453840637207 -60.049276428223 321.453840637207 -60.298645019531 323.750549316406 C-60.890858766027 329.22288432911 -61.471131714274 334.696312924579 -62.037475585938 340.17138671875 C-62.219959518726 341.923815644545 -62.405397144018 343.67593965876 -62.593872070312 345.427734375 C-62.858581429325 347.895056500127 -63.112261818109 350.363283696636 -63.36328125 352.83203125 C-63.443248443604 353.556670684814 -63.523215637207 354.281310119629 -63.605606079102 355.027908325195 C-64.054962953626 359.59793119906 -63.808961420384 363.519795299592 -63 368 C-58.624927014223 372.399745876986 -54.246614715518 376.796232358855 -49.865234375 381.189697265625 C-48.374424024565 382.685544137514 -46.884511380875 384.182286242517 -45.3955078125 385.679931640625 C-43.258201112848 387.829333617871 -41.117713197425 389.975521853143 -38.9765625 392.12109375 C-38.308797912598 392.794019622803 -37.641033325195 393.466945495605 -36.953033447266 394.160263061523 C-36.33254119873 394.780830841064 -35.712048950195 395.401398620606 -35.07275390625 396.040771484375 C-34.526483459473 396.589262542725 -33.980213012695 397.137753601074 -33.417388916016 397.702865600586 C-32 399 -32 399 -30 400 C21.15 400 72.3 400 125 400 C140.055555555556 384.944444444444 140.055555555556 384.944444444444 144.36328125 379.85546875 C146.319000876323 377.638364161686 148.395558904635 375.576240879681 150.5 373.5 C155.398356954035 368.660255864219 160.172092654431 363.741861018354 164 358 C165.43392090981 333.676447579883 166.614833818617 309.351531188535 167.528621673584 285.002899169922 C167.626585718083 282.395291341637 167.725830796285 279.78773407236 167.825103759766 277.18017578125 C168.81102159032 251.113254681731 169.463821314891 225.088165034503 169 199 C168.121020507812 198.061159667969 167.242041015625 197.122319335938 166.33642578125 196.155029296875 C165.164297648421 194.899010111496 163.992264969447 193.64290184301 162.8203125 192.38671875 C162.531763916016 192.078773803711 162.531763916016 192.078773803711 161.071533203125 190.520385742188 C156.769407858045 185.903581970806 152.731372351038 181.148727090835 148.8046875 176.20703125 C147.284613031408 174.348065720229 145.735763243951 172.654904707742 144 171 C144.33 169.68 144.66 168.36 145 167 C147.664376650405 164.476737303661 150.331927009067 161.956853448177 153 159.4375 C153.7437890625 158.73302734375 154.487578125 158.0285546875 155.25390625 157.302734375 C159.533162919693 153.265348734463 163.866766046987 149.315013684249 168.322265625 145.47265625 C170.304466062726 143.732750394301 172.173681446868 141.902415159513 174 140 C175.297292873989 136.108121378034 175.2710726061 132.343510007487 175.388916015625 128.281005859375 C175.418322753906 127.38954864502 175.447729492187 126.498091430664 175.47802734375 125.579620361328 C175.574360824949 122.624817263961 175.664213077131 119.669855293544 175.75390625 116.71484375 C175.819390014916 114.657993660432 175.885226500503 112.601154772658 175.951400756836 110.544326782227 C176.089411320388 106.226003154897 176.224453545708 101.90760061734 176.357177734375 97.589111328125 C176.526739584843 92.073590490794 176.701552963698 86.558253097164 176.878357887268 81.042960166931 C177.014444933755 76.790311986755 177.148735149944 72.537608680161 177.282392501831 68.284883499146 C177.346274004442 66.252854322237 177.410464445654 64.220834831903 177.474977493286 62.1888256073 C177.565130818412 59.334184159169 177.653122310445 56.479484112905 177.740478515625 53.624755859375 C177.766959686279 52.795803070068 177.793440856934 51.966850280762 177.820724487305 51.112777709961 C177.992178649859 45.407119848493 178.028164173655 39.708059893518 178 34 C173.824781791572 27.916110610577 169.01281436642 22.886859633298 163.77001953125 17.73876953125 C159.955991904055 13.986525400475 156.380627396091 10.153342229484 153 6 C152.67 5.835 152.67 5.835 151 5 C102.16 5 53.32 5 3 5 Z " fill="#E0E0DE" transform="translate(307,142)"/>
<path d="M0 0 C50.82 0 101.64 0 154 0 C155.65 1.65 157.3 3.3 159 5 C160.100721819558 6.090692815035 161.202187456818 7.180635940246 162.3046875 8.26953125 C173.334156773548 19.200919929758 173.334156773548 19.200919929758 178.3359375 25.11328125 C181.697672959698 28.924826383883 185.370988587613 32.445050045009 189 36 C189.33 36.825 189.33 36.825 191 41 C191.146811746345 46.895897260132 191.288901800273 52.791886249728 191.42724609375 58.68798828125 C191.47455827636 60.679227859404 191.522999449173 62.670441043069 191.57275390625 64.66162109375 C191.982679610285 81.117210070011 192 97.530914140435 192 114 C166.59 114 141.18 114 115 114 C114.436168647969 99.340384847183 114 84.670454056444 114 70 C102.285 70.165 102.285 70.165 43 71 C42.67 91.79 42.34 112.58 42 134 C80.28 134 118.56 134 158 134 C162.62 138.95 167.24 143.9 172 149 C174.31 151.31 176.62 153.62 179 156 C180.185198773454 157.31688752606 181.356636311476 158.646630736032 182.5 160 C185.342736856943 163.311178822082 188.344959799957 166.366415188975 191.51953125 169.359375 C193.115273038126 171.127743208477 193.977264646442 172.861528337946 195 175 C195.025056152344 176.192624511719 195.050112304687 177.385249023437 195.075927734375 178.614013671875 C195.171944585708 183.148744167491 195.271644707777 187.683388193804 195.372314453125 192.218017578125 C195.414945687804 194.16005393542 195.456650471962 196.10211090789 195.497314453125 198.044189453125 C195.703972743968 207.884695968952 195.954466008845 217.713518470725 196.47265625 227.54296875 C196.981737897688 237.360613405134 197.250785126554 247.180878719743 197.5 257.0078125 C197.520585346222 257.81715303421 197.541170692444 258.62649356842 197.562379837036 259.460359573364 C197.733034129498 266.203049951602 197.898118653816 272.945874936406 198.0625 279.688720703125 C198.205435294653 285.545159396944 198.350829074269 291.40152916914 198.5 297.2578125 C198.520313434601 298.059221019745 198.540626869202 298.86062953949 198.561555862427 299.686323165894 C198.805926446745 309.209000561147 199.123057038495 318.719009176502 199.688583374023 328.228866577148 C200.059338273616 334.552904797456 200.116344377944 340.854572778787 200.0625 347.1875 C200.05798828125 348.24646484375 200.0534765625 349.3054296875 200.048828125 350.396484375 C200.037359463951 352.931058466843 200.021150730733 355.465491666508 200 358 C193.787695117703 365.905075789378 187.120453971938 373.244089991909 180.23046875 380.5546875 C177.295411825583 383.671665976144 174.447410803097 386.850618762818 171.65234375 390.09375 C169.545248137715 392.52463099006 167.399381579731 394.918948672812 165.25 397.3125 C164.51265625 398.1336328125 163.7753125 398.954765625 163.015625 399.80078125 C161.388588685106 401.576016609079 159.702748917208 403.297251082792 158 405 C105.53 405 53.06 405 -1 405 C-6.560875512996 400.551299589603 -6.560875512996 400.551299589603 -8.9375 397.6875 C-12.505074933468 393.508340792223 -16.239054928532 389.504094772464 -20 385.5 C-24.166619557524 381.056149395595 -28.313308915251 376.610081694589 -32.28125 371.986328125 C-34.23292598902 369.730811669507 -36.211962385779 367.501142864433 -38.1953125 365.2734375 C-38.909614257813 364.470834960938 -39.623916015625 363.668232421875 -40.35986328125 362.84130859375 C-40.901108398437 362.233676757812 -41.442353515625 361.626044921875 -42 361 C-41.587507536505 333.838167758211 -41.038061363656 306.687073260667 -40.0625 279.5390625 C-40.019991149902 278.355388412476 -39.977482299805 277.171714324951 -39.933685302734 275.952171325684 C-39.628749917441 267.50954530053 -39.314905827941 259.067258945459 -39 250.625 C-38.64107340062 240.971525085923 -38.286381180385 231.317905805288 -37.9375 221.6640625 C-37.895061645508 220.496154251099 -37.852623291016 219.328246002197 -37.808898925781 218.124946594238 C-37.135684043772 199.468718221313 -36.649239622034 180.813228679202 -36.341552734375 162.147369384766 C-36.189210346267 153.318417349885 -35.887763759359 144.552555625718 -35.238525390625 135.743041992188 C-34.821390807979 129.197188508221 -34.697611107724 122.644101374379 -34.554443359375 116.087419509888 C-34.498379888216 113.523566501635 -34.438135136517 110.959838608267 -34.376953125 108.396102905273 C-34.247733820554 102.951648483944 -34.12350760195 97.507086581684 -34 92.0625 C-33.856576185105 85.744428841712 -33.71096704757 79.426421572631 -33.560302734375 73.108518600464 C-33.501851070822 70.614148952594 -33.44710518742 68.119717420234 -33.392578125 65.625259399414 C-33.164486215279 55.729768597297 -32.697339669854 45.87356595201 -32 36 C-29.654052836268 32.435508205895 -27.381989338993 29.128185921444 -24.42578125 26.046875 C-24.093968505859 25.698264160156 -24.093968505859 25.698264160156 -22.414794921875 23.93408203125 C-21.721037597656 23.213334960938 -21.027280273437 22.492587890625 -20.3125 21.75 C-18.876763427642 20.242988028426 -17.441862972503 18.735179028475 -16.0078125 17.2265625 C-15.318486328125 16.502431640625 -14.62916015625 15.77830078125 -13.9189453125 15.0322265625 C-10.779357721816 11.707299449923 -7.733235360416 8.304277204084 -4.69921875 4.8828125 C-3.185775088926 3.205847339913 -1.597298322698 1.597298322698 0 0 Z M1 6 C-9 17 -9 17 -12.625 21.1875 C-16.216311924762 25.327365536182 -20.080758018473 29.172376662197 -24 33 C-24.99 35.31 -25.98 37.62 -27 40 C-27.020614929199 40.86251373291 -27.041229858398 41.72502746582 -27.062469482422 42.613677978516 C-27.26342980366 50.987665061965 -27.468885897758 59.361529445132 -27.678678512573 67.735300064087 C-27.78623897402 72.034094496225 -27.892406809109 76.332910986571 -27.99462890625 80.6318359375 C-28.452944809139 99.856372427327 -29.055011048448 119.063652475114 -29.94140625 138.2734375 C-30.828866639383 157.572909821209 -31.470917975595 176.876413679374 -32.03515625 196.1875 C-32.05636724472 196.912875704765 -32.077578239441 197.638251409531 -32.099431991577 198.385608196259 C-32.360252989024 207.319943000691 -32.615734284792 216.254426924401 -32.869040966034 225.188977599144 C-33.148819633677 235.053962269546 -33.433470255718 244.918806762565 -33.718337059021 254.783645629883 C-33.761316636469 256.272186269566 -33.804295879143 257.760726918915 -33.847274780273 259.249267578125 C-33.868343819976 259.978709840775 -33.889412859678 260.708152103424 -33.911120355129 261.459698677063 C-34.051423105191 266.321647646588 -34.190089941999 271.183640848103 -34.328140258789 276.045654296875 C-34.625140598116 286.45385429509 -34.923008445976 296.861840612919 -35.275100708008 307.268341064453 C-35.298115418553 307.949240415096 -35.321130129099 308.630139765739 -35.344842255116 309.331672430038 C-35.455122799176 312.581357728562 -35.567302070761 315.830965027013 -35.681778907776 319.080505371094 C-35.990465669995 328.017198506952 -36.12602029309 336.933297203477 -36.0625 345.875 C-36.05798828125 347.1705078125 -36.0534765625 348.466015625 -36.048828125 349.80078125 C-36.037470841601 352.867247767597 -36.021362984465 355.933590076053 -36 359 C-31.968776869602 363.633421799623 -27.910450330585 368.232210377217 -23.75 372.75 C-23.288193359375 373.252412109375 -22.82638671875 373.75482421875 -22.3505859375 374.2724609375 C-20.901294193921 375.849141407695 -19.450813570389 377.424719849845 -18 379 C-16.082217740143 381.082310496628 -14.165741629159 383.165812142457 -12.25 385.25 C-11.40953125 386.16265625 -10.5690625 387.0753125 -9.703125 388.015625 C-6.423437583876 391.636551569247 -3.217080355565 395.323336736497 0 399 C51.81 399 103.62 399 157 399 C162.745539329936 392.679906737071 168.181550697128 386.571886300889 173.50390625 379.96875 C176.98921342714 375.823470728284 180.676621003719 371.881449322129 184.395751953125 367.946044921875 C184.919997558594 367.390217285156 185.444243164063 366.834389648437 185.984375 366.26171875 C186.445537109375 365.776628417969 186.90669921875 365.291538085937 187.3818359375 364.791748046875 C188.831241963319 363.186861078938 190.219644599808 361.551205291193 191.601135253906 359.88801574707 C192.392760620117 358.934970550537 193.184385986328 357.981925354004 194 357 C194.129186418565 338.651082147439 193.794535827602 320.335788938644 193.225215196609 301.996822118759 C193.113598841133 298.376688993731 193.006260547986 294.756428349174 192.898300170898 291.136184692383 C192.716825594643 285.071094869744 192.532406148504 279.006100645351 192.345947265625 272.941162109375 C192.132352400419 265.992906902832 191.922770977451 259.044539952186 191.71548563242 252.096093833447 C191.491727021696 244.59665243032 191.265115843913 237.097299121105 191.037651777267 229.597969293594 C190.973565743748 227.479286591082 190.909980181949 225.36058939098 190.846513748169 223.241888046265 C190.373507276318 207.486249121461 189.824566698874 191.741486179138 189 176 C188.043886490354 174.712492565762 187.086025822215 173.42628245831 186.127426147461 172.140625 C185.594204626083 171.424228515625 185.060983104706 170.70783203125 184.511603355408 169.9697265625 C182.859959372832 167.817517113749 181.105453003832 165.890183967937 179.16015625 164 C178.48919921875 163.34 177.8182421875 162.68 177.126953125 162 C176.786318359375 161.67 176.786318359375 161.67 175.0625 160 C170.415613807748 155.472491473962 165.932856688686 150.908975443877 161.736083984375 145.95703125 C159.593984813364 143.542312229493 157.282482946973 141.282482946973 155 139 C116.06 139 77.12 139 37 139 C37.33 114.91 37.66 90.82 38 66 C65.06 65.67 92.12 65.34 120 65 C120 78.86 120 92.72 120 107 C120.33 107.33 120.66 107.66 121 108 C142.45 108 163.9 108 186 108 C186.149847094801 62.746177370031 186.149847094801 62.746177370031 185 41 C179.869946695085 33.618374246283 173.70749577918 27.509016511487 167.3125 21.25 C165.741082866757 19.706346420348 164.171234999234 18.161173304176 162.604293823242 16.612976074219 C161.191745074132 15.218106771664 159.774356131718 13.828143978908 158.356689453125 12.4384765625 C156 10 156 10 153 6 C102.84 6 52.68 6 1 6 Z " fill="#DDDCDA" transform="translate(531,141)"/>
<path d="M0 0 C25.41 0 50.82 0 77 0 C77.165 0.165 77.165 0.165 78 1 C79.145737706415 12.252522962156 79.129313160089 23.440668176962 79.09765625 34.73828125 C79.09578724698 36.715102782551 79.09436562592 38.691924783623 79.093368530273 40.668746948242 C79.089581303892 45.8290640974 79.079784172436 50.98935234119 79.068664550781 56.149658203125 C79.056552391108 62.364035571887 79.052030098966 68.578422696609 79.046211242676 74.792808532715 C79.036569783834 84.195225687729 79.01738684679 93.597579630497 79 103 C52.6 103 26.2 103 -1 103 C-1 69.34 -1 35.68 -1 1 C-0.67 0.67 -0.34 0.34 0 0 Z " fill="#06081C" transform="translate(570,360)"/>
<path d="M0 0 C49.5 0 99 0 150 0 C154.29 3.96 158.58 7.92 163 12 C167.062500000002 15.562500000002 167.062500000002 15.562500000002 168.8984375 17.15625 C171.684104775194 19.600181141062 174.441767701873 22.073932229111 177.1875 24.5625 C177.687092285156 25.009885253906 178.186684570313 25.457270507812 178.701416015625 25.918212890625 C182.154748225603 29.063406917726 185.045531834505 32.402783636652 188 36 C188.10609085083 37.073436584473 188.21218170166 38.146873168945 188.321487426758 39.252838134766 C189.335787357024 49.515381462219 190.350272712214 59.777906446295 191.364926338196 70.040414810181 C191.886195348281 75.312741719963 192.407405518421 80.585074430831 192.928466796875 85.857421875 C193.531553349738 91.959653707663 194.1348566372 98.061864088018 194.73828125 104.1640625 C194.83702671051 105.162797660828 194.935772171021 106.161532821655 195.037509918213 107.190532684326 C196.239068683124 119.341436214826 197.447945456921 131.491562477884 198.66796875 143.640625 C199.736923246739 154.292865627781 200.765593792954 164.948290314769 201.763916015625 175.607360839844 C202.929678119983 188.03924321902 204.125105200714 200.464194992055 205.5 212.875 C206.854055608207 225.148240381333 207.961588805992 237.438708971368 209.056091308594 249.737121582031 C210.843398585752 269.770351955747 212.852622096855 289.780389525347 214.893798828125 309.7890625 C216.064498569571 321.306211543334 217.198834157481 332.824308300917 218.1796875 344.359375 C218.221869049072 344.847093811035 218.221869049072 344.847093811035 218.435333251953 347.315246582031 C218.841512035564 352.230341150072 219.089188487767 357.068301333584 219 362 C189.409090909091 400.590909090909 189.409090909091 400.590909090909 185 405 C128.57 405 72.14 405 14 405 C12.35 403.35 10.7 401.7 9 400 C7.254766961693 398.276471763662 5.508630570263 396.553857905526 3.76171875 394.83203125 C2.252215422726 393.337307439978 0.743693408573 391.841600944576 -0.764404296875 390.345458984375 C-1.789282111811 389.330602053294 -2.815952555418 388.317551981773 -3.844482421875 387.306396484375 C-10.376089230282 380.881744868529 -16.426852369136 374.292142031377 -22 367 C-22.851132944591 358.124412602611 -23.244530686513 349.282741679706 -23.46484375 340.37109375 C-23.502389502191 338.958202138194 -23.540286714533 337.545319829239 -23.578506469727 336.132446289062 C-23.659265689434 333.129670598848 -23.738201449931 330.126855187895 -23.815673828125 327.123992919922 C-24.022589165966 319.124073695676 -24.244393869727 311.124555498052 -24.46484375 303.125 C-24.487053642273 302.315815563202 -24.509263534546 301.506631126404 -24.532146453857 300.672925949097 C-24.969431247698 284.759290940023 -25.4640240863 268.848148091896 -26 252.9375 C-26.03584197998 251.847507019043 -26.071683959961 250.757514038086 -26.108612060547 249.634490966797 C-26.485629643199 238.20574518964 -26.911563049565 226.78045216721 -27.43310546875 215.357421875 C-28.892738454974 183.292411040597 -29.948013178734 151.219629166428 -30.925582647324 119.137124836445 C-31.104087791784 113.287682482649 -31.28660977977 107.438370477825 -31.47006046772 101.589081406593 C-31.67204773604 95.145571864116 -31.871210372165 88.701977825993 -32.069149017334 82.25834274292 C-32.151960822877 79.56418207533 -32.235881685514 76.870063045558 -32.320346832275 74.175952911377 C-32.738912190193 60.781373573506 -33.151063321203 47.40226615499 -33 34 C-32.506248779297 33.511767578125 -32.012497558594 33.02353515625 -31.503784179688 32.5205078125 C-29.478705562427 30.516665869398 -27.458209735161 28.50824720816 -25.4375 26.5 C-25.085263671875 26.151953125 -25.085263671875 26.151953125 -23.302734375 24.390625 C-19.947015355739 21.050370123685 -16.680172601829 17.688964143407 -13.59765625 14.09375 C-9.288365006693 9.190235099907 -4.615974945506 4.615974945506 0 0 Z M2 5 C-2.62 9.95 -7.24 14.9 -12 20 C-19.1875 27.1875 -19.1875 27.1875 -22.35546875 30.29296875 C-24.472807330549 32.46034782876 -26.224911690496 34.565138607468 -28 37 C-28.152411867097 51.496062026154 -27.713692378287 65.967874545693 -27.252391815186 80.455539703369 C-27.186753799259 82.523509556404 -27.122078704647 84.591507591805 -27.057647705078 86.659515380859 C-26.298074909069 110.990011238565 -25.434397727433 135.316694229046 -24.536075592041 159.642425537109 C-24.438393394484 162.288301009683 -24.341062715942 164.934189265364 -24.243743896484 167.580078125 C-23.082354146807 199.091157762378 -23.082354146807 199.091157762378 -22.34358215332 212.978713989258 C-21.828005650987 222.909624710566 -21.550623254754 232.849695193597 -21.240905761719 242.788726806641 C-21.035254432785 249.373630377724 -20.82293892564 255.958317901767 -20.609375 262.54296875 C-20.586462669373 263.250394039154 -20.563550338745 263.957819328308 -20.539943695068 264.686681747437 C-19.867547675272 285.396990443587 -19.118822169499 306.104657915143 -18.375 326.8125 C-18.306009264659 328.734537736593 -18.237019190016 330.656575496901 -18.168029785156 332.57861328125 C-17.779980674707 343.385788976303 -17.390641030065 354.192917683758 -17 365 C-15.573449236866 366.593850484079 -14.145631115604 368.186566694479 -12.71728515625 369.77880859375 C-11.922306213379 370.665874938965 -11.127327270508 371.55294128418 -10.308258056641 372.466888427734 C-7.429013173032 375.626608162307 -4.432969150708 378.639953118628 -1.375 381.625 C2.762614017982 385.704413820803 6.74982022526 389.81703609006 10.4375 394.31640625 C12.406061405195 396.437531164097 14.740277792377 398.192222233901 17 400 C71.45 400 125.9 400 182 400 C186.895149475547 394.49295684001 191.501825109177 389.214484742354 195.8125 383.3125 C201.399592789916 375.759645059984 207.159568264216 368.358024234058 213 361 C213.499367801003 348.510160779466 211.995185221662 336.18336280733 210.734375 323.77734375 C210.496724965084 321.390324511229 210.259697787126 319.00324318926 210.023254394531 316.616104125977 C209.398986771841 310.327882131994 208.767439511041 304.04041388325 208.133972167969 297.753112792969 C207.136017357748 287.836224387158 206.148765490905 277.918261000453 205.161407470703 268.000312805176 C204.918263460826 265.558771390799 204.674834623099 263.117258324688 204.431121826172 260.675773620605 C202.629248459362 242.615380978675 200.928564347751 224.548142630585 199.308654785156 206.470596313477 C198.222144920323 194.35415878434 197.061021053392 182.248182768618 195.791076660156 170.1494140625 C195.257797670438 165.066434453221 194.734169157956 159.982459797661 194.2109375 154.8984375 C194.158644866943 154.390617370605 194.158644866943 154.390617370605 193.894012451172 151.820739746094 C192.994326376348 143.037806525073 192.167514435613 134.248917658538 191.352905273438 125.457763671875 C188.58453003852 95.603201818732 185.257710333726 65.804344771846 182 36 C180.082567735406 34.237694312335 178.164511642204 32.476075953063 176.24609375 30.71484375 C175.706741943359 30.218997802734 175.167390136719 29.723151855469 174.611694335938 29.212280273438 C171.79270776476 26.625256025831 168.959751441134 24.06220411165 166.0625 21.5625 C161.735042407046 17.820575781146 157.562829248597 13.911816314712 153.390869140625 9.998291015625 C149.215931711961 6.107965855981 149.215931711961 6.107965855981 147 5 C99.15 5 51.3 5 2 5 Z " fill="#E1E2DF" transform="translate(765,142)"/>
<path d="M0 0 C18 0 18 0 23.375 1.9375 C27.978246570876 3.864566665874 31.608776971156 5.971778430686 35.375 9.25 C40.283076985707 14.008392454842 43.917407983945 18.937757778569 47.02734375 25.00390625 C48.251375006553 27.976553587343 48.925319496356 30.737048697863 49.11572265625 33.95703125 C49.245536904792 38.643009002242 49.155184612791 43.31572372502 49 48 C46.440784379572 54.970029639046 43.737639344809 61.30661002661 38.94140625 67.03515625 C35.658784085194 70.357407656232 32.118117115048 72.814741079273 28 75 C24.711950742843 76.474111468641 21.395401291355 77.794951524989 18 79 C3.687244518766 79.515259197324 3.687244518766 79.515259197324 -2.375 77.875 C-8.291274644869 75.77536024212 -13.040709772156 72.365006534547 -17.90625 68.4765625 C-20.787214278471 65.886221811024 -22.790977721089 63.363311861764 -24.73046875 59.9921875 C-26.727365884304 56.055311914555 -28.603118215508 52.190645353475 -30 48 C-30.445099883561 41.228644394353 -30.704282450734 34.384580234672 -29.31640625 27.71484375 C-27.835850103968 23.346895949881 -25.886039746626 19.531204554587 -23.25 15.75 C-19.898750241451 11.673479771317 -16.377555220334 7.976159654748 -12 5 C-8.055369967815 3.080990795153 -4.116494688104 1.543685508039 0 0 Z " fill="#336494" transform="translate(990,139)"/>
<path d="M0 0 C27.06 0 54.12 0 82 0 C82.842890734379 3.371562937517 83.257834591851 6.258769800947 83.517669677734 9.698837280273 C83.607264556885 10.862503204346 83.696859436035 12.026169128418 83.789169311523 13.22509765625 C83.883719024658 14.499094238281 83.978268737793 15.773090820312 84.07568359375 17.085693359375 C84.179037161625 18.444974172462 84.282698012158 19.804231650854 84.386642456055 21.163467407227 C84.668757117785 24.863717374183 84.946627607513 28.564275553776 85.223819255829 32.264897108078 C85.517435473988 36.174236843237 85.81514668554 40.083264632197 86.112457275391 43.992324829102 C86.678192755613 51.438388512933 87.240566326066 58.884701900236 87.801602005959 66.33112102747 C88.796515929281 79.534621402831 89.797524366144 92.737660642975 90.799042344093 105.940661489964 C91.148283623901 110.546334943315 91.496250624171 115.15210219889 91.843085587025 119.757957458496 C93.04669355769 135.73516736001 94.284858074937 151.709113211173 95.579833984375 167.67919921875 C95.610523766279 168.058077358603 95.610523766279 168.058077358603 95.765832662582 169.975430369377 C96.607824528823 180.354927536912 97.48625949099 190.730881876497 98.38671875 201.10546875 C98.712662565886 204.882673662397 99.037470278 208.659976396537 99.362548828125 212.437255859375 C99.58214860094 214.97164512325 99.804218107671 217.505821417999 100.028564453125 220.039794921875 C100.363440550822 223.831936653285 100.688401524584 227.62482617161 101.01171875 231.41796875 C101.111676483154 232.521421356201 101.211634216309 233.624873962402 101.31462097168 234.761764526367 C102.110352523897 244.270173857211 102 253.34509440386 102 263 C73.29 263 44.58 263 15 263 C8.887411100759 165.524582353444 8.887411100759 165.524582353444 6.2939453125 117.5859375 C6.149178404089 114.911453447405 6.004300101697 112.236975492181 5.859375 109.5625 C5.789735412598 108.27717880249 5.720095825195 106.99185760498 5.648345947266 105.667587280273 C5.017284089193 94.120248814346 4.318159876078 82.577513745543 3.611532211304 71.03461933136 C2.90317171615 59.459923806642 2.226593310499 47.883503859653 1.5673828125 36.305908203125 C1.436567894524 34.015485077098 1.304692741565 31.725122311586 1.171875 29.434814453125 C0.9743534645 26.028280182828 0.779798649683 22.621588052185 0.5859375 19.21484375 C0.556263885498 18.70759513855 0.556263885498 18.70759513855 0.406097412109 16.140609741211 C0.37929397583 15.663618850708 0.37929397583 15.663618850708 0.24365234375 13.249755859375 C0.220021209717 12.837636032104 0.220021209717 12.837636032104 0.100433349609 10.752059936523 C-0.030280143836 7.170267933443 0 3.584176330861 0 0 Z M6 6 C6 13.207794666143 6.104534949035 20.26796276852 6.563232421875 27.440673828125 C6.623575086594 28.427535829544 6.683917751312 29.414397830963 6.746088981628 30.431164741516 C6.94609353536 33.689987885132 7.150805269766 36.948497666899 7.35546875 40.20703125 C7.499156948427 42.5355328359 7.642510503513 44.864055092936 7.785552978516 47.192596435547 C8.090737155749 52.152059098434 8.397831857728 57.111398134564 8.706451416016 62.070648193359 C9.436387532888 73.804755647471 10.155190657821 85.539547547854 10.874769210815 97.274293899536 C11.117742208118 101.235606188434 11.361059519612 105.196897238144 11.604385375977 109.158187866211 C12.993213079096 131.787993104384 14.343050853383 154.419925922665 15.659122467041 177.05407333374 C15.809281845179 179.632245657606 15.960216088729 182.210371390267 16.111419677734 184.788482666016 C17.54143959134 209.18651669718 18.803021232868 233.589215821423 20 258 C45.41 258 70.82 258 97 258 C95.846929842617 237.244737167104 95.846929842617 237.244737167104 95.1328125 228.02734375 C95.053600616455 226.988258666992 94.97438873291 225.949173583984 94.892776489258 224.878601074219 C94.639159233041 221.56471837342 94.382348237167 218.251094893743 94.125 214.9375 C94.036628723145 213.791493225098 93.948257446289 212.645486450195 93.857208251953 211.464752197266 C92.706856608573 196.565101348671 91.469609872687 181.678952363243 90.072509765625 166.800537109375 C88.980499264734 155.074512129176 88.077704991509 143.337650143847 87.19287109375 131.594482421875 C86.512362597875 122.58124042583 85.808871808415 113.570550544841 85.0625 104.5625 C85.021904602051 104.072366714478 85.021904602051 104.072366714478 84.816467285156 101.591995239258 C84.649550061633 99.578384957323 84.482577658539 97.564779248755 84.315551757812 95.551177978516 C84.232044677734 94.544289245605 84.148537597656 93.537400512695 84.0625 92.5 C83.979315185547 91.497059020996 83.896130371094 90.494118041992 83.810424804688 89.460784912109 C82.161384966681 69.51564409016 80.703952552676 49.558017987407 79.306884765625 29.59375 C79.226660766602 28.462048797607 79.146436767578 27.330347595215 79.063781738281 26.164352416992 C78.913772253691 24.047833950942 78.76603927063 21.931152388315 78.621032714844 19.81428527832 C78.553779907226 18.869860687256 78.486527099609 17.925436096191 78.417236328125 16.952392578125 C78.360462188721 16.136441192627 78.303688049316 15.320489807129 78.245193481445 14.47981262207 C77.96408436245 11.636760117756 77.469674121616 8.818044729694 77 6 C53.57 6 30.14 6 6 6 Z " fill="#DEDEDD" transform="translate(803,207)"/>
<path d="M0 0 C28.71 0 57.42 0 87 0 C87.165 0.165 87.165 0.165 88 1 C88.77261655764 15.250338067726 89.188842143334 29.468489898239 89.31640625 43.73828125 C89.337057648417 45.726093034755 89.358055689244 47.713901244861 89.379379272461 49.701705932617 C89.433757305429 54.85528610158 89.483526664372 60.008900087595 89.5322265625 65.162536621094 C89.583069725786 70.45278826226 89.638422905233 75.742992687851 89.693359375 81.033203125 C89.799905020617 91.355428126624 89.901565930132 101.677694673322 90 112 C89.67 112.33 89.34 112.66 89 113 C59.3 113 29.6 113 -1 113 C-1.33 112.67 -1.66 112.34 -2 112 C-2.119432773124 83.931460888514 -1.998256547924 55.876463401978 -1.5 27.8125 C-1.488042182922 27.138687896729 -1.476084365845 26.464875793457 -1.463764190674 25.770645141602 C-1.31655968672 17.513620544068 -1.16202340755 9.256746712186 -1 1 C-0.67 0.67 -0.34 0.34 0 0 Z M5 5 C4.67 5.33 4.34 5.66 4 6 C4 39.66 4 73.32 4 108 C30.4 108 56.8 108 84 108 C84.040108809335 86.310047218501 84.040108809335 86.310047218501 84.048828125 76.998046875 C84.054784296331 70.667227702075 84.061797589571 64.336423120651 84.075439453125 58.005615234375 C84.086379180509 52.896276127985 84.092300121712 47.786952691373 84.094877243042 42.677602767944 C84.09671164789 40.737375297147 84.100293386864 38.797148592678 84.105730056763 36.856927871704 C84.133526095052 26.51718700306 84.048479593673 16.297331262726 83 6 C82.835 5.835 82.835 5.835 82 5 C56.59 5 31.18 5 5 5 Z " fill="#DCDDDD" transform="translate(565,355)"/>
<path d="M0 0 C4.216553788226 0.911390532351 8.086674021691 2.182163166703 12 4 C15.209756541639 6.120164504873 18.140752178355 8.429565089632 21 11 C21.66 12.65 22.32 14.3 23 16 C19.7 14.68 16.4 13.36 13 12 C8.38 12 3.76 12 -1 12 C-2.32 12.66 -2.32 12.66 -9 16 C-9.99 17.155 -9.99 17.155 -15 23 C-18 31 -18 31 -18.1875 34.9375 C-18.204986168918 38.609595472875 -17.675907211653 41.584464585251 -16.5 45.0625 C-16.013513161673 46.38006852047 -15.518429104267 47.694669576755 -15 49 C-11.640757256292 52.67417175093 -8.181940103519 55.345558271857 -3.96484375 57.984375 C-1.951345284614 59.025149554673 -0.220936527669 59.574247345486 2 60 C4.882440789639 60.252845683302 7.162989254228 60.361074094916 10 60 C12.957387144192 59.086043649096 15.807261248933 58.027170975358 18.6796875 56.875 C19.0625390625 56.730625 19.0625390625 56.730625 21 56 C21.66 56 22.32 56 23 56 C21 60 21 60 18.125 62.75 C15.121705518355 65.352444088817 12.255663171552 66.914545715944 8.5625 68.375 C4 70 4 70 -13 70 C-17.720763734912 68.40424887834 -21.700120193269 66.997272355383 -25.66796875 63.953125 C-27.824880808889 62.019105284239 -29.91819807454 60.014647024639 -32 58 C-34.31 53.38 -36.62 48.76 -39 44 C-39 38.06 -39 32.12 -39 26 C-33.642857142857 14.214285714286 -33.642857142857 14.214285714286 -29.25 9.5625 C-25.650632459651 6.246384031924 -21.79805404108 4.008765657704 -17.39453125 1.91015625 C-11.719498605624 -0.246911622985 -6.003266920266 -0.583650950581 0 0 Z " fill="#060A2A" transform="translate(1004,143)"/>
<path d="M0 0 C18 0 18 0 23.375 1.9375 C27.978246570876 3.864566665874 31.608776971156 5.971778430686 35.375 9.25 C40.283076985707 14.008392454842 43.917407983945 18.937757778569 47.02734375 25.00390625 C48.251375006553 27.976553587343 48.925319496356 30.737048697863 49.11572265625 33.95703125 C49.245536904792 38.643009002242 49.155184612791 43.31572372502 49 48 C46.440784379572 54.970029639046 43.737639344809 61.30661002661 38.94140625 67.03515625 C35.658784085194 70.357407656232 32.118117115048 72.814741079273 28 75 C24.711950742843 76.474111468641 21.395401291355 77.794951524989 18 79 C3.687244518766 79.515259197324 3.687244518766 79.515259197324 -2.375 77.875 C-8.291274644869 75.77536024212 -13.040709772156 72.365006534547 -17.90625 68.4765625 C-20.787214278471 65.886221811024 -22.790977721089 63.363311861764 -24.73046875 59.9921875 C-26.727365884304 56.055311914555 -28.603118215508 52.190645353475 -30 48 C-30.445099883561 41.228644394353 -30.704282450734 34.384580234672 -29.31640625 27.71484375 C-27.835850103968 23.346895949881 -25.886039746626 19.531204554587 -23.25 15.75 C-19.898750241451 11.673479771317 -16.377555220334 7.976159654748 -12 5 C-8.055369967815 3.080990795153 -4.116494688104 1.543685508039 0 0 Z M-6 7 C-11.0549032502 10.466219371566 -15.49233615627 14.141533850781 -19.45703125 18.83203125 C-21.949768191405 22.334484420835 -23.438807997361 26.003348473245 -25 30 C-25 35.94 -25 41.88 -25 48 C-18 62 -18 62 -14.125 65.75 C-11.552172998484 68.056954576876 -9.267133970888 69.865509314795 -6.17578125 71.421875 C-3.810860872288 72.352999143008 -1.40778129543 73.18610209732 1 74 C18 74 18 74 22.4375 72.5 C25.57327308417 71.26537322221 27.985562288108 70.011076663296 30.66796875 67.953125 C32.824880808889 66.019105284239 34.91819807454 64.014647024639 37 62 C38.155 59.69 38.155 59.69 44 48 C44 32 44 32 42.4375 27.5625 C40.524107979869 22.832541404781 38.23495056944 18.962993664475 34.9765625 15.0390625 C31.688192347387 11.64671226351 28.202078926435 9.149260041062 24 7 C19.898907075527 5.270465603737 15.919453625324 4.215601655263 11.49609375 3.71875 C5.249701255396 3.484143709123 -0.148312481236 4.908332972016 -6 7 Z " fill="#DEE4E5" transform="translate(990,139)"/>
</svg>
